<?xml version="1.0" encoding="utf-8"?>
<!-- Generator: Adobe Illustrator 16.0.0, SVG Export Plug-In . SVG Version: 6.00 Build 0)  -->
<!DOCTYPE svg PUBLIC "-//W3C//DTD SVG 1.1//EN" "http://www.w3.org/Graphics/SVG/1.1/DTD/svg11.dtd">
<svg version="1.1" id="Calque_1" xmlns="http://www.w3.org/2000/svg" xmlns:xlink="http://www.w3.org/1999/xlink" x="0px" y="0px"
	 width="595.279px" height="511.941px" viewBox="0 164.975 595.279 511.941" enable-background="new 0 164.975 595.279 511.941"
	 xml:space="preserve">
<g>
	<path fill="#5CAB9A" d="M555.991,197.715c5.357,2.381,8.334,7.144,8.334,12.501v27.383c10.715-4.762,17.858-15.477,17.858-27.978
		c0-17.263-14.287-31.55-31.55-31.55s-31.55,14.287-31.55,31.55c0,4.167,0.595,7.739,2.381,11.31l20.239-20.239
		C545.277,197.12,551.229,195.929,555.991,197.715z"/>
	<path fill="#FFFFFF" d="M551.229,164.975c-24.406,0-44.05,19.644-44.05,44.051c0,7.738,1.785,14.882,5.357,20.835l9.524-9.525
		c-1.19-3.572-2.382-7.143-2.382-11.31c0-17.263,14.287-31.55,31.55-31.55c17.264,0,30.955,14.287,30.955,31.55
		c0,12.501-7.144,23.216-17.858,27.978v13.691c17.858-5.953,30.954-22.621,30.954-42.265
		C595.28,184.619,575.04,164.975,551.229,164.975z"/>
	<path fill="#FFFFFF" d="M537.537,242.361l-55.36,55.361c-2.382,2.381-5.953,4.167-9.524,4.167H58.933
		c-17.858,0-32.146,14.287-32.146,32.145v283.948c0,17.858,14.287,32.146,32.146,32.146h446.46
		c17.858,0,32.145-14.287,32.145-32.146V242.361z M220.849,567.979H160.13V426.897h60.719V567.979z M412.529,445.947
		c-2.976,14.882-31.55,125.009-33.335,130.961c-7.144,16.073-25.002,11.311-35.122,8.334
		c-11.311-4.167-102.983-27.383-102.983-27.383V447.138l71.434-101.198c0,0,14.287,1.19,22.025,14.882
		c13.097,22.025-31.55,41.669-17.263,64.885c27.978,0,55.36,0,68.457,0C399.433,425.707,414.91,432.851,412.529,445.947z"/>
	<path fill="#6E6E6F" d="M564.325,237.599v-27.383c0-5.357-2.977-10.12-8.334-12.501c-4.763-1.786-10.715-1.19-14.882,2.977
		l-19.645,19.644l-9.524,9.525l-45.241,45.241H58.933C26.193,275.102,0,301.889,0,334.034v283.948
		c0,32.146,26.192,58.934,58.933,58.934h446.46c32.145,0,58.933-26.192,58.933-58.934V251.29V237.599z M505.393,650.128H58.933
		c-17.858,0-32.146-14.287-32.146-32.146V334.034c0-17.858,14.287-32.145,32.146-32.145h414.314c3.572,0,7.144-1.191,9.524-4.167
		l55.361-55.361v375.622C537.537,635.841,523.251,650.128,505.393,650.128z"/>
	<path fill="#6E6E6F" d="M386.336,425.707c-13.096,0-40.479,0-68.457,0c-14.286-22.62,30.359-41.669,17.264-64.29
		c-8.334-14.287-22.025-14.882-22.025-14.882l-71.434,101.197v110.127c0,0,91.673,23.216,102.983,27.383
		c10.119,2.977,27.978,8.334,35.121-8.334c1.786-5.952,30.359-116.079,33.336-130.961
		C414.91,432.851,399.433,425.707,386.336,425.707z"/>
	<rect x="160.13" y="426.897" fill="#6E6E6F" width="60.719" height="141.082"/>
</g>
</svg>
