<?xml version="1.0" encoding="utf-8"?>
<!-- Generator: Adobe Illustrator 16.0.0, SVG Export Plug-In . SVG Version: 6.00 Build 0)  -->
<!DOCTYPE svg PUBLIC "-//W3C//DTD SVG 1.1//EN" "http://www.w3.org/Graphics/SVG/1.1/DTD/svg11.dtd">
<svg version="1.1" id="Layer_1" xmlns="http://www.w3.org/2000/svg" xmlns:xlink="http://www.w3.org/1999/xlink" x="0px" y="0px"
	 width="18.497px" height="20.46px" viewBox="0 0 18.497 20.46" enable-background="new 0 0 18.497 20.46" xml:space="preserve">
<polygon fill="#A2A2A1" points="18.013,16.933 2.579,19.292 0,2.47 1.918,20.46 18.101,17.66 "/>
<path fill="#F4D340" d="M11.553,7.673l2.249-0.221c0.44-0.044,0.815,0.287,0.859,0.706c0.044,0.44-0.286,0.815-0.705,0.859
	L13.14,9.105l4.828,4.388L15.918,0L0,2.426v0.021l4.96-0.771L11.553,7.673z"/>
<path fill="#F2BB41" d="M18.013,16.933l0.484-0.066l-0.507-3.351l0,0l-4.828-4.388L4.695,9.943c-0.021,0-0.044,0-0.088,0
	c-0.396,0-0.75-0.309-0.794-0.728C3.77,8.775,4.101,8.4,4.52,8.356l7.033-0.684l-6.57-5.975L0.021,2.47H0l2.579,16.822
	L18.013,16.933z"/>
<path fill="#444445" d="M14.684,8.18c-0.045-0.44-0.441-0.749-0.86-0.705l-2.249,0.22L4.541,8.378
	c-0.44,0.044-0.749,0.441-0.705,0.86S4.232,9.966,4.63,9.966c0.021,0,0.044,0,0.088,0l8.466-0.815L14,9.062
	C14.396,8.996,14.728,8.599,14.684,8.18z"/>
</svg>
