<?xml version="1.0" encoding="utf-8"?>
<!-- Generator: Adobe Illustrator 16.0.0, SVG Export Plug-In . SVG Version: 6.00 Build 0)  -->
<!DOCTYPE svg PUBLIC "-//W3C//DTD SVG 1.1//EN" "http://www.w3.org/Graphics/SVG/1.1/DTD/svg11.dtd">
<svg version="1.1" id="Calque_1" xmlns="http://www.w3.org/2000/svg" xmlns:xlink="http://www.w3.org/1999/xlink" x="0px" y="0px"
	 width="594.431px" height="333.267px" viewBox="0 254.086 594.431 333.267" enable-background="new 0 254.086 594.431 333.267"
	 xml:space="preserve">
<g>
	<path fill="#5CAB9A" d="M564.163,546.766c-1.354,0.451-2.706,0.902-4.059,0.902c-2.706,0-5.412-0.902-7.216-3.157l-7.216-7.216
		c-4.51,4.51-7.666,10.373-7.666,17.138c0,13.078,10.823,23.45,23.901,23.45s23.901-10.823,23.901-23.45
		c0-9.922-6.313-18.49-15.333-21.647v4.961C570.477,541.354,567.771,544.962,564.163,546.766z"/>
	<path fill="#FFFFFF" d="M570.477,522.413v10.372c9.02,3.608,15.333,12.177,15.333,21.646c0,13.078-10.823,23.451-23.901,23.451
		s-23.901-10.823-23.901-23.451c0-6.764,2.705-13.078,7.666-17.137l-6.765-6.765c-6.313,6.314-10.372,14.883-10.372,23.901
		c0,18.49,14.882,32.921,32.921,32.921c18.489,0,32.921-14.882,32.921-32.921C595.28,539.1,584.457,526.472,570.477,522.413z"/>
	<path fill="#FFFFFF" d="M550.634,513.394V303.242c0-16.235-13.078-28.862-29.313-28.862H49.156
		c-16.234,0-29.312,13.078-29.312,28.862V451.16c0,16.234,13.078,28.862,29.312,28.862h463.597c2.706,0,5.412,0.901,7.216,3.156
		L550.634,513.394z M119.507,330.3h192.563c5.412,0,9.922,4.509,9.922,9.921c0,5.411-4.51,9.921-9.922,9.921H119.507
		c-5.412,0-9.922-4.51-9.922-9.921C109.585,334.81,114.095,330.3,119.507,330.3z M457.283,421.847H119.507
		c-5.412,0-9.922-4.51-9.922-9.921c0-5.412,4.51-9.922,9.922-9.922h337.776c5.411,0,9.921,4.51,9.921,9.922
		C467.204,417.337,462.695,421.847,457.283,421.847z"/>
	<path fill="#6E6E6F" d="M546.124,537.295l7.216,7.216c1.804,1.804,4.51,3.157,7.215,3.157c1.354,0,2.706-0.451,4.059-0.902
		c3.608-1.353,6.314-5.412,6.314-9.471v-4.96v-10.373v-218.72c0-27.058-22.549-49.156-49.156-49.156H49.156
		C22.548,254.086,0,276.184,0,303.242V451.16c0,27.058,22.548,49.155,49.155,49.155h459.087l30.666,30.215L546.124,537.295z
		 M49.156,480.473c-16.234,0-29.312-13.078-29.312-28.861v-148.37c0-16.235,13.078-28.862,29.312-28.862H520.87
		c16.234,0,29.312,13.078,29.312,28.862v209.702l-30.666-30.216c-1.804-1.804-4.51-3.156-7.216-3.156H49.156V480.473z"/>
	<path fill="#6E6E6F" d="M119.507,350.143h192.563c5.412,0,9.922-4.51,9.922-9.921c0-5.412-4.51-9.921-9.922-9.921H119.507
		c-5.412,0-9.922,4.509-9.922,9.921C109.585,346.084,114.095,350.143,119.507,350.143z"/>
	<path fill="#6E6E6F" d="M457.283,402.004H119.507c-5.412,0-9.922,4.51-9.922,9.922c0,5.411,4.51,9.921,9.922,9.921h337.776
		c5.411,0,9.921-4.51,9.921-9.921C467.204,406.514,462.695,402.004,457.283,402.004z"/>
</g>
</svg>
