<?xml version="1.0" encoding="utf-8"?>
<!-- Generator: Adobe Illustrator 16.0.0, SVG Export Plug-In . SVG Version: 6.00 Build 0)  -->
<!DOCTYPE svg PUBLIC "-//W3C//DTD SVG 1.1//EN" "http://www.w3.org/Graphics/SVG/1.1/DTD/svg11.dtd">
<svg version="1.1" id="Calque_1" xmlns="http://www.w3.org/2000/svg" xmlns:xlink="http://www.w3.org/1999/xlink" x="0px" y="0px"
	 width="595.318px" height="311.665px" viewBox="0 265.112 595.318 311.665" enable-background="new 0 265.112 595.318 311.665"
	 xml:space="preserve">
<g>
	<path fill="#5CAB9A" d="M575.333,559.947c-0.935,0.312-1.87,0.624-2.805,0.624c-1.87,0-3.74-0.624-4.986-2.182l-10.285-10.285
		c-0.624,1.87-0.936,3.74-0.936,5.61c0,9.038,7.48,16.518,16.519,16.518s16.519-7.479,16.519-16.518
		c0-6.545-3.74-12.155-9.351-14.648v14.336C579.697,556.208,578.139,558.701,575.333,559.947z"/>
	<path fill="#FFFFFF" d="M579.697,531.897v7.169c5.61,2.493,9.351,8.104,9.351,14.648c0,9.038-7.48,16.518-16.519,16.518
		s-16.519-7.479-16.519-16.518c0-1.87,0.312-4.052,0.936-5.61l-4.987-4.986c-1.558,3.116-2.805,6.856-2.805,10.908
		c0,12.778,10.285,22.751,23.063,22.751s23.062-10.285,23.062-22.751C595.904,543.741,589.047,535.015,579.697,531.897z"/>
	<path fill="#FFFFFF" d="M38.958,497.927H524.22c1.87,0,3.74,0.623,4.987,2.182l37.088,36.776V303.759
		c0-13.713-11.22-24.621-24.934-24.621H38.958c-13.714,0-24.934,11.22-24.934,24.621v169.546
		C14.025,487.018,25.244,497.927,38.958,497.927z M119.679,351.132h339.092c3.74,0,6.856,3.116,6.856,6.856
		c0,3.74-3.116,6.856-6.856,6.856H119.679c-3.739,0-6.856-3.117-6.856-6.856C112.823,354.249,115.94,351.132,119.679,351.132z
		 M119.679,411.907h208.815c3.74,0,6.857,3.116,6.857,6.856s-3.117,6.856-6.857,6.856H119.679c-3.739,0-6.856-3.116-6.856-6.856
		S115.94,411.907,119.679,411.907z"/>
	<path fill="#6E6E6F" d="M557.569,548.416l10.285,10.285c1.246,1.246,3.116,2.182,4.986,2.182c0.936,0,1.87-0.312,2.805-0.623
		c2.494-0.936,4.363-3.74,4.363-6.545v-14.337v-7.168V303.759c-0.312-21.193-17.765-38.646-39.27-38.646H38.958
		C17.453,265.112,0,282.566,0,303.759v169.546c0,21.505,17.453,38.646,38.958,38.646h482.146l31.479,31.167L557.569,548.416z
		 M14.025,303.759c0-13.713,11.22-24.621,24.934-24.621h502.403c13.714,0,24.934,11.22,24.934,24.621v233.126l-37.088-36.776
		c-1.247-1.247-3.117-2.182-4.987-2.182H38.958c-13.714,0-24.934-11.221-24.934-24.622V303.759z"/>
	<path fill="#6E6E6F" d="M119.679,365.157h339.092c3.74,0,6.856-3.117,6.856-6.857c0-3.74-3.116-6.856-6.856-6.856H119.679
		c-3.739,0-6.856,3.117-6.856,6.856C112.823,362.041,115.94,365.157,119.679,365.157z"/>
	<path fill="#6E6E6F" d="M119.679,425.62h208.815c3.74,0,6.857-3.116,6.857-6.856s-3.117-6.856-6.857-6.856H119.679
		c-3.739,0-6.856,3.116-6.856,6.856S115.94,425.62,119.679,425.62z"/>
</g>
</svg>
