<?xml version="1.0" encoding="utf-8"?>
<!-- Generator: Adobe Illustrator 16.0.0, SVG Export Plug-In . SVG Version: 6.00 Build 0)  -->
<!DOCTYPE svg PUBLIC "-//W3C//DTD SVG 1.1//EN" "http://www.w3.org/Graphics/SVG/1.1/DTD/svg11.dtd">
<svg version="1.1" id="Layer_1" xmlns="http://www.w3.org/2000/svg" xmlns:xlink="http://www.w3.org/1999/xlink" x="0px" y="0px"
	 width="40.567px" height="40.567px" viewBox="0 0 40.567 40.567" enable-background="new 0 0 40.567 40.567" xml:space="preserve">
<path fill="#F4B73E" d="M20.283,0.882v3.308c8.885,0,16.095,7.209,16.095,16.095c0,8.885-7.21,16.095-16.095,16.095v3.308
	c10.693,0,19.402-8.709,19.402-19.401C39.686,9.591,30.977,0.882,20.283,0.882z"/>
<path fill="#775923" d="M4.188,20.284c0-8.886,7.21-16.095,16.095-16.095V0.882C9.59,0.882,0.882,9.59,0.882,20.284
	c0,10.691,8.708,19.4,19.401,19.4v-3.307C11.398,36.379,4.188,29.169,4.188,20.284z"/>
<path fill="#B5882E" d="M4.188,20.284c0,8.885,7.21,16.095,16.095,16.095s16.095-7.21,16.095-16.095
	c0-8.886-7.21-16.095-16.095-16.095S4.188,11.398,4.188,20.284z M20.283,5.027c8.422,0,15.257,6.855,15.257,15.257
	c0,8.398-6.855,15.257-15.257,15.257S5.026,28.685,5.026,20.284C5.026,11.883,11.861,5.027,20.283,5.027z"/>
<path fill="#C0BFBF" d="M11.619,28.331c0.176-0.176,0.463-0.176,0.639,0c0.178,0.177,0.178,0.463,0,0.64l-0.947,0.948
	c2.249,2.116,5.248,3.439,8.555,3.55v-1.346c0-0.242,0.198-0.44,0.441-0.44V20.835l-6.372,3.792
	c-0.066,0.045-0.154,0.066-0.222,0.066c-0.153,0-0.309-0.088-0.375-0.222c-0.132-0.22-0.064-0.483,0.155-0.616l6.504-3.881
	l0.31-0.463V8.929c-0.243,0-0.441-0.197-0.441-0.44V7.143c-3.307,0.11-6.283,1.435-8.555,3.551l0.947,0.947
	c0.178,0.177,0.178,0.464,0,0.641c-0.088,0.088-0.197,0.132-0.309,0.132s-0.221-0.044-0.309-0.132l-0.948-0.948
	c-2.116,2.249-3.439,5.247-3.55,8.554h1.346c0.242,0,0.439,0.199,0.439,0.441s-0.197,0.439-0.439,0.439H7.143
	c0.109,3.309,1.434,6.284,3.55,8.556L11.619,28.331z"/>
<path fill="#F3FAFA" d="M26.588,10.297c0.132-0.199,0.419-0.265,0.617-0.109c0.198,0.132,0.265,0.419,0.11,0.616l-6.682,9.745l0,0
	c-0.021,0.021-0.044,0.044-0.064,0.065c0,0-0.022,0-0.022,0.021c-0.021,0.022-0.021,0.022-0.044,0.044l-0.221,0.134V31.66
	c0.242,0,0.44,0.199,0.44,0.441v1.345c3.308-0.11,6.283-1.434,8.555-3.55l-0.947-0.948c-0.177-0.176-0.177-0.463,0-0.639
	c0.176-0.178,0.463-0.178,0.639,0l0.948,0.946c2.116-2.248,3.439-5.247,3.55-8.554h-1.345c-0.243,0-0.441-0.198-0.441-0.441
	c0-0.241,0.198-0.439,0.441-0.439h1.345c-0.109-3.309-1.434-6.284-3.55-8.555l-0.948,0.947c-0.088,0.088-0.197,0.132-0.309,0.132
	s-0.221-0.044-0.309-0.132c-0.178-0.177-0.178-0.463,0-0.64l0.947-0.948c-2.249-2.116-5.247-3.438-8.555-3.55v1.346
	c0,0.242-0.198,0.44-0.44,0.44v10.583L26.588,10.297z"/>
<path fill="#C0BFBF" d="M10.648,11.289l-0.838-0.838c-2.314,2.469-3.792,5.754-3.902,9.392h1.189
	C7.231,16.536,8.553,13.537,10.648,11.289z"/>
<path fill="#C0BFBF" d="M19.842,7.122V5.931c-3.615,0.11-6.923,1.565-9.393,3.903l0.838,0.837
	C13.537,8.555,16.535,7.231,19.842,7.122z"/>
<path fill="#C0BFBF" d="M11.288,29.919l-0.838,0.838c2.47,2.314,5.754,3.792,9.393,3.902v-1.19
	C16.535,33.336,13.537,32.014,11.288,29.919z"/>
<path fill="#C0BFBF" d="M7.121,20.725H5.932c0.109,3.616,1.564,6.924,3.901,9.394l0.838-0.838
	C8.553,27.03,7.231,24.032,7.121,20.725z"/>
<path fill="#C0BFBF" d="M29.278,10.649l0.838-0.838c-2.469-2.315-5.754-3.792-9.392-3.902v1.189
	C24.031,7.231,27.03,8.555,29.278,10.649z"/>
<path fill="#C0BFBF" d="M29.918,29.279l0.838,0.838c2.315-2.47,3.792-5.755,3.902-9.394h-1.19
	C33.335,24.032,32.012,27.03,29.918,29.279z"/>
<path fill="#C0BFBF" d="M20.725,33.446v1.189c3.614-0.109,6.923-1.564,9.392-3.901l-0.838-0.838
	C27.03,32.014,24.031,33.336,20.725,33.446z"/>
<path fill="#C0BFBF" d="M33.445,19.843h1.189c-0.108-3.614-1.563-6.923-3.901-9.392l-0.837,0.838
	C32.012,13.537,33.335,16.536,33.445,19.843z"/>
<path fill="#444445" d="M20.283,0C9.105,0,0,9.106,0,20.284s9.105,20.283,20.283,20.283s20.284-9.105,20.284-20.283
	S31.461,0,20.283,0z M20.283,39.685c-10.693,0-19.401-8.709-19.401-19.4c0-10.693,8.708-19.402,19.401-19.402
	S39.686,9.59,39.686,20.284C39.686,30.976,30.977,39.685,20.283,39.685z"/>
<path fill="#444445" d="M20.283,35.541c8.422,0,15.257-6.855,15.257-15.257S28.685,5.027,20.283,5.027S5.026,11.883,5.026,20.284
	S11.861,35.541,20.283,35.541z M5.753,19.843H5.93c0.11-3.614,1.565-6.923,3.902-9.392l-0.133-0.133
	c-0.176-0.177-0.176-0.463,0-0.641c0.177-0.176,0.463-0.176,0.64,0l0.134,0.134c2.469-2.315,5.754-3.792,9.392-3.902V5.732
	c0-0.242,0.198-0.44,0.441-0.44c0.241,0,0.439,0.198,0.439,0.44v0.177c3.616,0.109,6.923,1.564,9.394,3.902l0.132-0.134
	c0.177-0.176,0.463-0.176,0.64,0c0.177,0.178,0.177,0.464,0,0.641l-0.132,0.133c2.313,2.469,3.792,5.754,3.902,9.392h0.153
	c0.242,0,0.44,0.198,0.44,0.441c0,0.242-0.198,0.439-0.44,0.439h-0.153c-0.11,3.616-1.565,6.924-3.902,9.394l0.132,0.132
	c0.177,0.177,0.177,0.464,0,0.64c-0.088,0.089-0.198,0.134-0.309,0.134c-0.111,0-0.222-0.045-0.31-0.134l-0.133-0.132
	c-2.469,2.314-5.754,3.792-9.392,3.902v0.154c0,0.241-0.198,0.439-0.441,0.439c-0.242,0-0.439-0.198-0.439-0.439v-0.154
	c-3.616-0.11-6.924-1.565-9.394-3.902l-0.132,0.132c-0.089,0.089-0.199,0.134-0.309,0.134c-0.11,0-0.222-0.045-0.31-0.134
	c-0.177-0.176-0.177-0.463,0-0.64l0.132-0.132c-2.314-2.47-3.792-5.755-3.901-9.394H5.796c-0.241,0-0.439-0.197-0.439-0.439
	C5.357,20.041,5.511,19.843,5.753,19.843z"/>
<path fill="#444445" d="M32.101,19.843c-0.242,0-0.44,0.198-0.44,0.441c0,0.242,0.198,0.439,0.44,0.439h1.345h1.189h0.154
	c0.243,0,0.441-0.197,0.441-0.439c0-0.243-0.198-0.441-0.441-0.441h-0.154h-1.189H32.101z"/>
<path fill="#444445" d="M5.753,20.725H5.93h1.19h1.345c0.242,0,0.441-0.197,0.441-0.439c0-0.243-0.199-0.441-0.441-0.441H7.12H5.93
	H5.753c-0.242,0-0.439,0.198-0.439,0.441C5.313,20.526,5.511,20.725,5.753,20.725z"/>
<path fill="#444445" d="M20.725,32.101c0-0.241-0.199-0.44-0.441-0.44s-0.44,0.199-0.44,0.44v1.346v1.189v0.154
	c0,0.243,0.198,0.441,0.44,0.441s0.441-0.198,0.441-0.441v-0.154v-1.189V32.101z"/>
<path fill="#444445" d="M19.842,8.467c0,0.242,0.198,0.44,0.44,0.44s0.441-0.198,0.441-0.44V7.122V5.931V5.755
	c0-0.242-0.199-0.44-0.441-0.44s-0.44,0.198-0.44,0.44v0.176v1.191V8.467z"/>
<path fill="#444445" d="M11.619,12.236c0.088,0.089,0.198,0.133,0.309,0.133c0.109,0,0.221-0.044,0.31-0.133
	c0.176-0.176,0.176-0.463,0-0.64l-0.948-0.947l-0.838-0.838l-0.132-0.134c-0.177-0.176-0.464-0.176-0.641,0
	c-0.177,0.178-0.177,0.464,0,0.641l0.133,0.133l0.838,0.838L11.619,12.236z"/>
<path fill="#444445" d="M28.948,28.331c-0.177-0.176-0.463-0.176-0.64,0c-0.178,0.177-0.178,0.463,0,0.64l0.947,0.948l0.838,0.838
	l0.133,0.132c0.088,0.089,0.197,0.134,0.309,0.134s0.221-0.045,0.309-0.134c0.178-0.176,0.178-0.463,0-0.64l-0.132-0.132
	l-0.838-0.838L28.948,28.331z"/>
<path fill="#444445" d="M28.331,11.619c-0.177,0.177-0.177,0.463,0,0.64c0.088,0.088,0.198,0.132,0.31,0.132
	c0.11,0,0.22-0.044,0.309-0.132l0.948-0.947l0.837-0.839l0.133-0.132c0.177-0.177,0.177-0.463,0-0.64s-0.463-0.177-0.64,0
	l-0.133,0.133l-0.838,0.837L28.331,11.619z"/>
<path fill="#444445" d="M12.236,28.948c0.176-0.176,0.176-0.463,0-0.64c-0.177-0.177-0.463-0.177-0.641,0l-0.947,0.947l-0.838,0.838
	l-0.133,0.134c-0.177,0.176-0.177,0.463,0,0.64c0.089,0.088,0.198,0.132,0.31,0.132c0.11,0,0.221-0.044,0.309-0.132l0.132-0.133
	l0.839-0.838L12.236,28.948z"/>
<path fill="#444445" d="M20.658,20.063c0.088,0.153,0.088,0.353-0.022,0.484l0,0l6.682-9.745c0.133-0.197,0.088-0.484-0.11-0.616
	c-0.198-0.134-0.484-0.09-0.617,0.109l-6.306,9.216l-0.309,0.463l0.088-0.044C20.261,19.777,20.547,19.843,20.658,20.063z"/>
<path fill="#444445" d="M20.57,20.614C20.57,20.614,20.57,20.637,20.57,20.614C20.57,20.637,20.57,20.614,20.57,20.614z"/>
<path fill="#444445" d="M20.57,20.637C20.57,20.637,20.57,20.614,20.57,20.637c0.044-0.044,0.064-0.065,0.088-0.088
	c0.088-0.133,0.11-0.331,0.021-0.484c-0.132-0.222-0.396-0.286-0.616-0.154l-0.088,0.044l-6.505,3.881
	c-0.221,0.132-0.286,0.396-0.153,0.617c0.088,0.132,0.242,0.221,0.375,0.221c0.088,0,0.153-0.021,0.221-0.065l6.371-3.792
	l0.221-0.133C20.525,20.659,20.547,20.637,20.57,20.637z"/>
</svg>
