<?xml version="1.0" encoding="utf-8"?>
<!-- Generator: Adobe Illustrator 16.0.0, SVG Export Plug-In . SVG Version: 6.00 Build 0)  -->
<!DOCTYPE svg PUBLIC "-//W3C//DTD SVG 1.1//EN" "http://www.w3.org/Graphics/SVG/1.1/DTD/svg11.dtd">
<svg version="1.1" id="Layer_1" xmlns="http://www.w3.org/2000/svg" xmlns:xlink="http://www.w3.org/1999/xlink" x="0px" y="0px"
	 width="17.638px" height="18.365px" viewBox="0 0 17.638 18.365" enable-background="new 0 0 17.638 18.365" xml:space="preserve">
<path fill="#A2A2A1" d="M17.638,0.64l-0.022,0.198L17.638,0.64z"/>
<polygon fill="#A2A2A1" points="0.903,17.021 0.903,17.021 1.168,10.164 1.543,0.022 0,18.365 16.579,18.365 16.624,17.616 "/>
<path fill="#F4D340" d="M17.638,0.617L1.565,0v0.022l3.571,0.132l3.285,4.542l5.887,0.551c0.44,0.045,0.75,0.419,0.728,0.86
	c-0.044,0.419-0.375,0.728-0.794,0.728c-0.021,0-0.044,0-0.065,0L9.679,6.416l1.301,1.808c0.265,0.11,0.463,0.375,0.485,0.661
	l5.577,7.717l-0.044,1.036l0,0l0.64-16.8V0.617L17.638,0.617z"/>
<path fill="#F4D340" d="M0.903,17.021l0.265-6.856L0.903,17.021z"/>
<path fill="#F2BB41" d="M11.442,8.885c0,0.045,0,0.089,0,0.133c-0.044,0.419-0.375,0.728-0.794,0.728c-0.021,0-0.044,0-0.065,0
	L4.542,9.194c-0.441-0.045-0.75-0.419-0.728-0.86c0.044-0.44,0.418-0.75,0.859-0.728l6.041,0.551c0.088,0,0.154,0.022,0.242,0.066
	L9.656,6.416L4.851,5.975c-0.441-0.044-0.75-0.419-0.728-0.859c0.021-0.441,0.419-0.771,0.859-0.728l3.417,0.309L5.115,0.154
	L1.543,0.022l0,0L1.168,10.164l-0.265,6.856l0,0l15.721,0.596l0.353,0.021l0,0l0.044-1.036L11.442,8.885z"/>
<path fill="#444445" d="M4.123,5.115c-0.045,0.44,0.286,0.815,0.728,0.859l4.806,0.441l4.498,0.419c0.021,0,0.044,0,0.066,0
	c0.396,0,0.749-0.309,0.793-0.728c0.045-0.441-0.286-0.815-0.728-0.86L8.399,4.696L4.982,4.388C4.542,4.344,4.167,4.674,4.123,5.115
	z"/>
<path fill="#444445" d="M4.674,7.606C4.232,7.562,3.858,7.894,3.814,8.334C3.77,8.775,4.101,9.149,4.542,9.194l6.041,0.551
	c0.021,0,0.044,0,0.065,0c0.397,0,0.75-0.309,0.794-0.728c0-0.044,0-0.088,0-0.133c-0.022-0.309-0.221-0.551-0.485-0.661
	c-0.065-0.021-0.154-0.044-0.242-0.066L4.674,7.606z"/>
</svg>
