<?xml version="1.0" encoding="utf-8"?>
<!-- Generator: Adobe Illustrator 19.1.0, SVG Export Plug-In . SVG Version: 6.00 Build 0)  -->
<!DOCTYPE svg PUBLIC "-//W3C//DTD SVG 1.1//EN" "http://www.w3.org/Graphics/SVG/1.1/DTD/svg11.dtd">
<svg version="1.1" id="Calque_1" xmlns="http://www.w3.org/2000/svg" xmlns:xlink="http://www.w3.org/1999/xlink" x="0px" y="0px"
	 width="33.17px" height="22.83px" viewBox="0 0 33.17 22.83" enable-background="new 0 0 33.17 22.83" xml:space="preserve">
<path fill="#0CAC9A" d="M33.1,1.07c0-0.02-0.02-0.03-0.02-0.04c-0.05-0.14-0.1-0.27-0.19-0.38c-0.01-0.01-0.02-0.02-0.03-0.04
	c-0.08-0.1-0.17-0.2-0.27-0.28c-0.02-0.02-0.04-0.03-0.06-0.05c-0.11-0.08-0.23-0.14-0.36-0.19c-0.03-0.01-0.05-0.02-0.08-0.03
	C31.96,0.03,31.82,0,31.67,0H1.5C1.35,0,1.21,0.03,1.07,0.07C1.04,0.08,1.02,0.09,0.99,0.1C0.86,0.14,0.74,0.21,0.63,0.28
	C0.61,0.3,0.59,0.32,0.57,0.33C0.47,0.41,0.38,0.5,0.3,0.61C0.29,0.62,0.28,0.63,0.27,0.65C0.19,0.76,0.13,0.89,0.08,1.03
	C0.08,1.04,0.07,1.05,0.06,1.07c0,0.01,0,0.03-0.01,0.04C0.02,1.24,0,1.36,0,1.5v19.83c0,0.83,0.67,1.5,1.5,1.5h30.17
	c0.83,0,1.5-0.67,1.5-1.5V1.5c0-0.14-0.02-0.26-0.06-0.39C33.11,1.1,33.11,1.08,33.1,1.07z M26.66,3L16.58,9.62L6.51,3H26.66z
	 M3,19.83V4.28l12.76,8.39c0.25,0.17,0.54,0.25,0.82,0.25s0.57-0.08,0.82-0.25l12.76-8.39v15.55H3z"/>
</svg>
