<?xml version="1.0" encoding="utf-8"?>
<!-- Generator: Adobe Illustrator 19.1.0, SVG Export Plug-In . SVG Version: 6.00 Build 0)  -->
<!DOCTYPE svg PUBLIC "-//W3C//DTD SVG 1.1//EN" "http://www.w3.org/Graphics/SVG/1.1/DTD/svg11.dtd">
<svg version="1.1" id="Calque_1" xmlns="http://www.w3.org/2000/svg" xmlns:xlink="http://www.w3.org/1999/xlink" x="0px" y="0px"
	 width="21.5px" height="21.5px" viewBox="0 0 21.5 21.5" enable-background="new 0 0 21.5 21.5" xml:space="preserve">
<circle fill="#303031" cx="10.75" cy="10.75" r="10.75"/>
<path fill="#FFFFFF" d="M11.81,10.75l3.8-3.8c0.29-0.29,0.29-0.77,0-1.06s-0.77-0.29-1.06,0l-3.8,3.8l-3.8-3.8
	c-0.29-0.29-0.77-0.29-1.06,0s-0.29,0.77,0,1.06l3.8,3.8l-3.8,3.8c-0.29,0.29-0.29,0.77,0,1.06c0.15,0.15,0.34,0.22,0.53,0.22
	s0.38-0.07,0.53-0.22l3.8-3.8l3.8,3.8c0.15,0.15,0.34,0.22,0.53,0.22s0.38-0.07,0.53-0.22c0.29-0.29,0.29-0.77,0-1.06L11.81,10.75z"
	/>
</svg>
