<?xml version="1.0" encoding="utf-8"?>
<!-- Generator: Adobe Illustrator 19.1.0, SVG Export Plug-In . SVG Version: 6.00 Build 0)  -->
<!DOCTYPE svg PUBLIC "-//W3C//DTD SVG 1.1//EN" "http://www.w3.org/Graphics/SVG/1.1/DTD/svg11.dtd">
<svg version="1.1" id="Calque_1" xmlns="http://www.w3.org/2000/svg" xmlns:xlink="http://www.w3.org/1999/xlink" x="0px" y="0px"
	 width="32.14px" height="32.17px" viewBox="0 0 32.14 32.17" enable-background="new 0 0 32.14 32.17" xml:space="preserve">
<path fill="#0CAC9A" d="M31.16,23.52c-0.52-0.42-2.39-1.68-5.21-3.56l-0.42-0.3c-0.4-0.29-0.68-0.49-0.93-0.62
	c-0.26-0.16-0.88-0.5-1.64-0.3c-0.86,0.23-1.28,0.99-1.43,1.27c-0.81,1.47-1.32,1.98-1.54,2.15c-1.1-0.84-4.52-4.24-5.1-4.9
	c-0.04-0.04-0.08-0.09-0.13-0.12c-0.66-0.59-4.07-4.01-4.9-5.1c0.26-0.35,1.07-1,2.09-1.52c0.68-0.34,1.13-0.8,1.32-1.38
	c0.29-0.86-0.17-1.55-0.35-1.81L12.8,7.16c-0.15-0.23-0.39-0.61-0.69-1.04C10.49,3.69,9,1.47,8.52,0.88C8.21,0.5,7.7,0,6.92,0
	C6.8,0,6.43,0,5.82,0.25L5.66,0.3C4.73,0.61,3.85,0.98,2.4,2.43C-0.36,5.27-0.71,8.26,1.2,12.75c2.06,4.84,7.48,10.28,7.71,10.51
	s5.68,5.64,10.51,7.71c1.86,0.8,3.47,1.2,4.94,1.2c2.07,0,3.74-0.74,5.4-2.41c1.43-1.43,1.8-2.31,2.11-3.24l0.06-0.17
	c0-0.01,0.01-0.02,0.01-0.04C32.29,25.17,32.27,24.38,31.16,23.52z M27.64,27.63c-1.27,1.27-2.23,1.54-3.28,1.54
	c-1.05,0-2.28-0.31-3.75-0.95c-4.31-1.84-9.52-7.02-9.57-7.07c-0.05-0.05-5.23-5.26-7.07-9.57C2.2,7.43,3.19,5.93,4.54,4.53
	C5.52,3.55,5.98,3.36,6.5,3.18C7.22,4.2,8.79,6.56,9.64,7.83C9.73,7.96,9.82,8.09,9.9,8.21c-1.05,0.61-2.53,1.67-2.98,3
	c-0.22,0.59-0.19,1.23,0.08,1.91c0.02,0.06,0.05,0.12,0.08,0.17c0.71,1.28,4.99,5.45,5.61,6.03c0.58,0.62,4.74,4.89,6.03,5.61
	c0.08,0.04,0.17,0.08,0.25,0.11c0.23,0.08,0.57,0.19,0.98,0.19c1.65,0,2.89-1.56,3.83-3.13c0,0,0,0,0,0l0.47,0.33
	c1.19,0.79,3.77,2.51,4.74,3.21C28.82,26.18,28.63,26.63,27.64,27.63z"/>
</svg>
