<?xml version="1.0" encoding="utf-8"?>
<!-- Generator: Adobe Illustrator 16.0.0, SVG Export Plug-In . SVG Version: 6.00 Build 0)  -->
<!DOCTYPE svg PUBLIC "-//W3C//DTD SVG 1.1//EN" "http://www.w3.org/Graphics/SVG/1.1/DTD/svg11.dtd">
<svg version="1.1" id="Calque_1" xmlns="http://www.w3.org/2000/svg" xmlns:xlink="http://www.w3.org/1999/xlink" x="0px" y="0px"
	 width="300px" height="300px" viewBox="0 0 300 300" enable-background="new 0 0 300 300" xml:space="preserve">
<path display="none" fill="#FFFFFF" d="M150,0C67.157,0,0,67.157,0,150.011C0,232.843,67.157,300,150,300s150-67.157,150-149.989
	C300,67.157,232.843,0,150,0z M221.293,113.443c0.074,1.575,0.107,3.161,0.107,4.757c0,48.61-36.997,104.667-104.668,104.667
	c-20.775,0-40.104-6.085-56.378-16.531c2.872,0.343,5.807,0.514,8.764,0.514c17.239,0,33.097-5.882,45.697-15.75
	c-16.104-0.3-29.679-10.939-34.361-25.543c2.239,0.43,4.554,0.665,6.921,0.665c3.354,0,6.611-0.45,9.696-1.297
	c-16.821-3.375-29.507-18.246-29.507-36.064c0-0.161,0-0.311,0.011-0.472c4.96,2.754,10.639,4.415,16.661,4.597
	c-9.868-6.589-16.372-17.85-16.372-30.622c0-6.739,1.821-13.061,4.982-18.482c18.14,22.253,45.247,36.9,75.825,38.432
	c-0.622-2.689-0.954-5.497-0.954-8.379c0-20.314,16.468-36.782,36.782-36.782c10.575,0,20.143,4.468,26.85,11.614
	c8.379-1.65,16.254-4.714,23.357-8.925c-2.742,8.593-8.582,15.793-16.178,20.357c7.445-0.89,14.527-2.872,21.128-5.796
	C234.718,101.775,228.482,108.247,221.293,113.443z"/>
<path fill="#FFFFFF" d="M150,0C67.157,0,0,67.157,0,150.011C0,232.843,67.157,300,150,300s150-67.157,150-149.989
	C300,67.157,232.843,0,150,0z M195.514,116.143l-3.503,33.868h-26.839v97.446h-40.265v-97.446h-20.443l0.311-33.868H124.8
	l0.247-15.9c0.225-13.896,0.407-16.457,1.5-20.432c3.643-13.329,11.046-21.075,23.764-24.857c6.344-1.886,12.707-2.4,29.594-2.4
	h15.631l-0.16,16.768l-0.15,16.779l-12.074,0.3c-13.2,0.322-13.586,0.418-16.49,4.307c-1.104,1.479-1.21,2.571-1.393,13.532
	l-0.182,11.904H195.514z"/>
</svg>
