<?xml version="1.0" encoding="utf-8"?>
<!-- Generator: Adobe Illustrator 19.1.0, SVG Export Plug-In . SVG Version: 6.00 Build 0)  -->
<!DOCTYPE svg PUBLIC "-//W3C//DTD SVG 1.1//EN" "http://www.w3.org/Graphics/SVG/1.1/DTD/svg11.dtd">
<svg version="1.1" id="Calque_1" xmlns="http://www.w3.org/2000/svg" xmlns:xlink="http://www.w3.org/1999/xlink" x="0px" y="0px"
	 width="38.55px" height="34.32px" viewBox="0 0 38.55 34.32" enable-background="new 0 0 38.55 34.32" xml:space="preserve">
<path fill="#0CAC9A" d="M37.98,14.55l-5.95-4.76v-7.6c0-0.83-0.67-1.5-1.5-1.5H26c-0.83,0-1.5,0.67-1.5,1.5v1.58l-4.29-3.43
	c-0.55-0.44-1.33-0.44-1.88,0L0.56,14.55c-0.65,0.52-0.75,1.46-0.23,2.11c0.3,0.37,0.73,0.56,1.17,0.56c0.33,0,0.66-0.11,0.94-0.33
	l2.68-2.14v18.07c0,0.83,0.67,1.5,1.5,1.5h9.3h6.72h9.3c0.83,0,1.5-0.67,1.5-1.5V14.75l2.68,2.14c0.65,0.52,1.59,0.41,2.11-0.23
	C38.73,16.01,38.63,15.07,37.98,14.55z M27.5,3.69h1.53v3.7L27.5,6.16V3.69z M17.41,31.32v-5.97h3.72v5.97H17.41z M30.43,12.57
	v18.75h-6.3v-7.47c0-0.83-0.67-1.5-1.5-1.5h-6.72c-0.83,0-1.5,0.67-1.5,1.5v7.47h-6.3V12.57c0-0.07-0.01-0.14-0.02-0.2l11.18-8.94
	l5.79,4.63l0,0l4.53,3.62c0,0,0,0,0,0l0.86,0.69C30.44,12.43,30.43,12.5,30.43,12.57z"/>
<path fill="#0CAC9A" d="M17.89,12.69h-5.25c-0.83,0-1.5,0.67-1.5,1.5v4.61c0,0.83,0.67,1.5,1.5,1.5h5.25c0.83,0,1.5-0.67,1.5-1.5
	v-4.61C19.39,13.36,18.72,12.69,17.89,12.69z M16.39,17.3h-2.25v-1.61h2.25V17.3z"/>
</svg>
