<?xml version="1.0" encoding="utf-8"?>
<!-- Generator: Adobe Illustrator 19.1.0, SVG Export Plug-In . SVG Version: 6.00 Build 0)  -->
<!DOCTYPE svg PUBLIC "-//W3C//DTD SVG 1.1//EN" "http://www.w3.org/Graphics/SVG/1.1/DTD/svg11.dtd">
<svg version="1.1" id="Calque_1" xmlns="http://www.w3.org/2000/svg" xmlns:xlink="http://www.w3.org/1999/xlink" x="0px" y="0px"
	 width="366.57px" height="107.21px" viewBox="-296 227.79 366.57 107.21" enable-background="new -296 227.79 366.57 107.21"
	 xml:space="preserve">
<path fill="#434344" d="M-153.83,275.17c2.07,1,3.76,2.03,5.08,3.1c1.32,1.07,2.35,2.14,3.1,3.21s1.28,2.12,1.6,3.15
	s0.52,1.98,0.59,2.83v1.18c0,2-0.34,3.94-1.02,5.82c-0.68,1.89-1.73,3.58-3.15,5.08c-1.92,2-4.19,3.53-6.79,4.6
	c-2.6,1.07-5.47,1.6-8.6,1.6c-3.49,0-6.7-0.8-9.62-2.4c-2.92-1.6-5.17-3.76-6.73-6.46c-0.5-1.14-0.75-2.07-0.75-2.78
	c0-0.92,0.21-1.8,0.64-2.62c0.43-0.82,1.1-1.48,2.03-1.98c1-0.5,1.89-0.75,2.67-0.75c0.86,0,1.71,0.23,2.57,0.69
	c0.85,0.46,1.53,1.16,2.03,2.08c0.78,1.28,1.87,2.17,3.26,2.67s2.69,0.75,3.9,0.75c1.64,0,3.1-0.21,4.38-0.64
	c1.28-0.43,2.31-1.1,3.1-2.03h-0.11c1-1,1.5-2.35,1.5-4.06c-0.21-0.43-0.66-0.89-1.34-1.39s-1.5-1.02-2.46-1.55
	c-0.96-0.53-1.98-1.03-3.05-1.5c-1.07-0.46-2.1-0.8-3.1-1.01l-0.21-0.11c-1.57-0.43-3.17-1.01-4.81-1.76s-3.14-1.73-4.49-2.94
	c-1.35-1.21-2.46-2.65-3.31-4.33c-0.86-1.67-1.28-3.65-1.28-5.93c0-1.99,0.44-3.85,1.34-5.56c0.89-1.71,2.12-3.21,3.69-4.49
	c1.57-1.28,3.44-2.28,5.61-2.99s4.5-1.07,7-1.07c1.64,0,3.35,0.27,5.13,0.8s3.38,1.27,4.81,2.19c0.78,0.5,1.41,1.16,1.87,1.98
	c0.46,0.82,0.69,1.66,0.69,2.51c0,0.57-0.09,1.07-0.27,1.5c-0.18,0.43-0.41,0.89-0.69,1.39h0.11c-1,1.64-2.49,2.46-4.49,2.46
	c-0.93,0-1.96-0.28-3.1-0.86l0.21,0.11c-0.64-0.36-1.35-0.64-2.14-0.85c-0.78-0.21-1.5-0.32-2.14-0.32c-1.21,0-2.24,0.14-3.1,0.43
	c-0.85,0.29-1.57,0.61-2.14,0.96c-0.57,0.36-0.98,0.71-1.23,1.07c-0.25,0.36-0.37,0.61-0.37,0.75c0,0.29,0.04,0.61,0.11,0.96
	c0.07,0.36,0.28,0.75,0.64,1.17c0.36,0.43,0.92,0.87,1.71,1.34c0.78,0.46,1.89,0.91,3.31,1.34c0.57,0.14,1.6,0.43,3.1,0.85
	C-157.04,273.78-155.47,274.39-153.83,275.17z M-104.46,257.54c1.07,1.07,1.6,2.35,1.6,3.85s-0.53,2.76-1.6,3.79
	c-1.07,1.03-2.32,1.55-3.74,1.55h-7.69v33.66c0,1.43-0.52,2.67-1.55,3.74s-2.3,1.6-3.79,1.6c-1.43,0-2.67-0.53-3.74-1.6
	s-1.6-2.31-1.6-3.74v-33.66h-7.59c-1.43,0-2.67-0.52-3.74-1.55c-1.07-1.03-1.6-2.3-1.6-3.79c0-1.5,0.53-2.78,1.6-3.85
	s2.31-1.6,3.74-1.6h7.59v-20.52c0-1.42,0.53-2.67,1.6-3.74c1.07-1.07,2.31-1.6,3.74-1.6c1.5,0,2.76,0.53,3.79,1.6
	c1.03,1.07,1.55,2.32,1.55,3.74v20.52h7.69C-106.78,255.93-105.53,256.47-104.46,257.54z M-75.08,255.93c1.42,0,2.67,0.53,3.74,1.6
	c1.07,1.07,1.6,2.35,1.6,3.85s-0.53,2.76-1.6,3.79s-2.32,1.55-3.74,1.55c-1.21,0-2.51,0.18-3.9,0.53c-1.39,0.36-2.44,1.03-3.15,2.03
	c-0.14,0.29-0.29,0.64-0.43,1.07c-0.07,0.21-0.11,0.39-0.11,0.53v29.51c0,1.43-0.53,2.67-1.6,3.74s-2.35,1.6-3.85,1.6
	c-1.43,0-2.67-0.53-3.74-1.6s-1.6-2.31-1.6-3.74v-39c0-1.5,0.53-2.78,1.6-3.85s2.31-1.6,3.74-1.6c0.71,0,1.41,0.16,2.08,0.48
	c0.68,0.32,1.3,0.73,1.87,1.23c1.35-0.57,2.78-1,4.27-1.28C-78.39,256.08-76.79,255.93-75.08,255.93z M-49.11,238.73
	c0,1.5-0.53,2.78-1.6,3.85c-1.07,1.07-2.35,1.6-3.85,1.6c-1.43,0-2.67-0.53-3.74-1.6c-1.07-1.07-1.6-2.35-1.6-3.85
	c0-1.42,0.53-2.67,1.6-3.74c1.07-1.07,2.31-1.6,3.74-1.6c1.5,0,2.78,0.53,3.85,1.6C-49.65,236.06-49.11,237.31-49.11,238.73z
	 M-54.56,305.73c-1.43,0-2.67-0.53-3.74-1.6s-1.6-2.31-1.6-3.74v-39c0-1.5,0.53-2.78,1.6-3.85s2.31-1.6,3.74-1.6
	c1.5,0,2.78,0.53,3.85,1.6s1.6,2.35,1.6,3.85v39c0,1.43-0.53,2.67-1.6,3.74S-53.07,305.73-54.56,305.73z M1.54,255.93
	c3.21,0,5.89,0.64,8.07,1.92c2.17,1.28,3.94,2.87,5.29,4.75c1.35,1.89,2.33,3.95,2.94,6.2c0.6,2.24,0.91,4.33,0.91,6.25v25.34
	c0,1.43-0.53,2.67-1.6,3.74s-2.35,1.6-3.85,1.6c-1.43,0-2.67-0.53-3.74-1.6c-1.07-1.07-1.6-2.31-1.6-3.74v-25.33
	c0-0.43-0.07-1.1-0.21-2.03c-0.14-0.92-0.46-1.89-0.96-2.88c-0.57-1.21-1.23-2.08-1.98-2.62c-0.75-0.53-1.84-0.8-3.26-0.8
	c-1.43,0-2.53,0.27-3.31,0.8s-1.46,1.41-2.03,2.62c-0.42,1-0.71,1.96-0.85,2.88c-0.14,0.93-0.21,1.6-0.21,2.03v25.33
	c0,1.43-0.53,2.67-1.59,3.74s-2.37,1.6-3.92,1.6c-1.41,0-2.65-0.53-3.71-1.6s-1.59-2.31-1.59-3.74v-25.33c0-0.43-0.07-1.1-0.21-2.03
	c-0.14-0.92-0.42-1.89-0.85-2.88c-0.57-1.21-1.25-2.08-2.03-2.62c-0.78-0.53-1.89-0.8-3.31-0.8c-2.49,0-4.27,1.14-5.34,3.42
	c-0.43,1-0.71,1.96-0.85,2.88c-0.14,0.93-0.21,1.6-0.21,2.03v25.33c0,1.43-0.53,2.67-1.6,3.74s-2.35,1.6-3.85,1.6
	c-1.43,0-2.67-0.53-3.74-1.6c-1.07-1.07-1.6-2.31-1.6-3.74v-39c0-1.5,0.53-2.78,1.6-3.85s2.31-1.6,3.74-1.6
	c0.64,0,1.32,0.18,2.03,0.53c0.71,0.36,1.35,0.79,1.92,1.28c1.28-0.57,2.56-1.02,3.85-1.34c1.28-0.32,2.63-0.48,4.06-0.48
	c2.42,0,4.61,0.43,6.56,1.28c1.95,0.86,3.66,2,5.15,3.42c1.62-1.42,3.39-2.56,5.3-3.42C-3.16,256.36-0.96,255.93,1.54,255.93z
	 M50.59,305.73c-0.93,0-1.53-0.04-1.82-0.11c-3.28-0.14-6.3-0.89-9.08-2.24c-2.78-1.35-5.09-3.21-6.95-5.56
	c-3.56-4.56-5.34-10.22-5.34-16.99c0-3.42,0.57-6.64,1.71-9.67c1.14-3.03,2.69-5.66,4.65-7.91c1.96-2.24,4.24-4.02,6.84-5.34
	c2.6-1.32,5.4-1.98,8.39-1.98c6.05,0,11.22,2.35,15.49,7.05c1.99,2.21,3.51,4.74,4.54,7.59c1.03,2.85,1.55,5.88,1.55,9.08
	c0,1.5-0.53,2.78-1.6,3.85c-1.07,1.07-2.32,1.6-3.74,1.6H38.4c0.36,1.14,0.84,2.28,1.44,3.42c0.6,1.14,1.34,2.17,2.19,3.1
	c0.86,0.93,1.87,1.69,3.05,2.3s2.55,0.94,4.11,1.01h0.64c0.92,0,2.12-0.09,3.58-0.27c1.46-0.18,2.97-0.8,4.54-1.87
	c1.14-0.57,2.17-0.86,3.1-0.86s1.83,0.25,2.73,0.75c0.89,0.5,1.62,1.25,2.19,2.24c0.36,0.29,0.53,1.03,0.53,2.24
	c0,1.85-0.85,3.42-2.56,4.7c-2.49,1.64-4.97,2.69-7.43,3.15C54.06,305.5,52.08,305.73,50.59,305.73z M59.03,274.31
	c-1.07-2.42-2.32-4.24-3.74-5.45c-1.43-1.21-3.42-1.82-5.98-1.82c-2.49,0-4.47,0.64-5.93,1.92c-1.46,1.28-2.83,3.06-4.11,5.34
	L59.03,274.31L59.03,274.31z M-247.19,227.79c-26.96,0-48.81,21.85-48.81,48.81s21.85,48.81,48.81,48.81s48.81-21.85,48.81-48.81
	C-198.37,249.64-220.23,227.79-247.19,227.79z M-260.37,253.16c0-1.19,0.66-2.28,1.72-2.83c0.45-0.24,0.96-0.36,1.47-0.36
	c0.66,0,1.29,0.2,1.83,0.58l29.76,20.82c-0.45,0.17-0.89,0.38-1.29,0.66l-4.45,3.12l-22.65-15.86v18.81
	c-0.91-0.63-2.01-1.01-3.19-1.01c-1.19,0-2.29,0.37-3.19,1.01v-24.94H-260.37z M-221.83,279.22l-33.52,23.45
	c-0.96,0.67-2.26,0.76-3.3,0.21c-1.06-0.55-1.72-1.64-1.72-2.83v-17.37c0-1.76,1.43-3.19,3.19-3.19c1.76,0,3.19,1.43,3.19,3.19
	v11.25l28.5-19.94c0.54-0.38,1.17-0.58,1.83-0.58c1.04,0,2.02,0.51,2.62,1.36C-220.04,276.22-220.39,278.21-221.83,279.22z
	 M1.07,335c-1.12,0-2.26-0.04-3.4-0.11s-2.15-0.22-3-0.44v-20.64c0.45-0.08,0.93-0.16,1.44-0.23c0.51-0.07,1.03-0.13,1.56-0.17
	s1.06-0.07,1.58-0.09s1.02-0.03,1.49-0.03c1.29,0,2.48,0.1,3.59,0.29c1.1,0.2,2.06,0.52,2.87,0.97c0.81,0.45,1.44,1.04,1.89,1.78
	s0.67,1.65,0.67,2.73c0,1-0.24,1.86-0.72,2.58s-1.15,1.29-2.01,1.72c1.29,0.43,2.24,1.06,2.85,1.9c0.61,0.84,0.92,1.9,0.92,3.19
	c0,2.19-0.8,3.83-2.39,4.92C6.8,334.45,4.36,335,1.07,335z M-1.54,322.15h2.73c1.47,0,2.63-0.21,3.46-0.63
	c0.83-0.42,1.26-1.17,1.26-2.25c0-1.02-0.43-1.75-1.3-2.18c-0.87-0.43-2-0.64-3.39-0.64c-0.59,0-1.12,0.01-1.58,0.03
	s-0.85,0.05-1.18,0.09L-1.54,322.15L-1.54,322.15z M-1.54,325.18v6.47c0.43,0.04,0.89,0.07,1.38,0.09c0.49,0.02,0.94,0.03,1.35,0.03
	c0.8,0,1.54-0.05,2.22-0.15c0.68-0.1,1.28-0.28,1.78-0.54c0.5-0.25,0.9-0.6,1.2-1.03c0.3-0.43,0.44-0.98,0.44-1.66
	c0-1.21-0.44-2.04-1.32-2.51s-2.09-0.71-3.65-0.71h-3.4V325.18z M14.81,334.75V313.5h13.64v3.28h-9.78v5.24h8.71v3.22h-8.71v6.22
	h10.52v3.28H14.81V334.75z M47.58,313.5v3.34h-6.53v17.9h-3.89v-17.9h-6.53v-3.34H47.58z M62.91,334.75
	c-0.29-0.84-0.58-1.67-0.89-2.48c-0.31-0.81-0.6-1.66-0.89-2.51h-8.97c-0.29,0.86-0.58,1.7-0.88,2.53c-0.3,0.83-0.59,1.65-0.88,2.47
	h-4.02c0.8-2.27,1.55-4.36,2.27-6.29c0.71-1.92,1.41-3.74,2.1-5.46c0.68-1.72,1.36-3.35,2.04-4.91c0.67-1.55,1.37-3.09,2.08-4.6
	h3.69c0.71,1.51,1.41,3.05,2.08,4.6c0.67,1.55,1.35,3.19,2.04,4.91s1.39,3.54,2.12,5.46c0.73,1.92,1.49,4.02,2.28,6.29h-4.17V334.75
	z M56.64,317.61c-0.47,1.08-1.01,2.4-1.61,3.96c-0.6,1.55-1.23,3.24-1.89,5.06h6.99c-0.65-1.82-1.29-3.52-1.9-5.09
	C57.62,319.96,57.09,318.65,56.64,317.61z"/>
</svg>
