<?xml version="1.0" encoding="utf-8"?>
<!-- Generator: Adobe Illustrator 16.0.0, SVG Export Plug-In . SVG Version: 6.00 Build 0)  -->
<!DOCTYPE svg PUBLIC "-//W3C//DTD SVG 1.1//EN" "http://www.w3.org/Graphics/SVG/1.1/DTD/svg11.dtd">
<svg version="1.1" id="Layer_1" xmlns="http://www.w3.org/2000/svg" xmlns:xlink="http://www.w3.org/1999/xlink" x="0px" y="0px"
	 width="367.667px" height="99.167px" viewBox="0 0 367.667 99.167" enable-background="new 0 0 367.667 99.167"
	 xml:space="preserve">
<g>
	<defs>
		<rect id="SVGID_1_" x="-67" y="-104.263" width="502.08" height="302.596"/>
	</defs>
	<clipPath id="SVGID_2_">
		<use xlink:href="#SVGID_1_"  overflow="visible"/>
	</clipPath>
	<path clip-path="url(#SVGID_2_)" fill="#303030" d="M142.923,48.083c2.065,0.998,3.757,2.03,5.076,3.099
		c1.317,1.068,2.351,2.137,3.099,3.206c0.748,1.068,1.282,2.12,1.603,3.152c0.321,1.033,0.516,1.977,0.588,2.831v1.176
		c0,1.995-0.339,3.938-1.016,5.824c-0.678,1.888-1.728,3.579-3.152,5.075c-1.924,1.996-4.186,3.526-6.786,4.596
		c-2.601,1.068-5.468,1.603-8.602,1.603c-3.491,0-6.697-0.802-9.617-2.404c-2.922-1.603-5.166-3.757-6.732-6.465
		c-0.5-1.139-0.748-2.065-0.748-2.778c0-0.925,0.213-1.799,0.641-2.618c0.427-0.818,1.103-1.478,2.03-1.977
		c0.997-0.498,1.887-0.748,2.672-0.748c0.855,0,1.71,0.231,2.565,0.694c0.854,0.463,1.53,1.158,2.03,2.084
		c0.782,1.282,1.869,2.174,3.259,2.67c1.389,0.5,2.688,0.749,3.9,0.749c1.638,0,3.099-0.214,4.381-0.641
		c1.283-0.428,2.315-1.104,3.099-2.03h-0.107c0.997-0.997,1.497-2.352,1.497-4.062c-0.214-0.427-0.66-0.89-1.336-1.389
		c-0.678-0.498-1.496-1.016-2.458-1.55s-1.977-1.031-3.045-1.496c-1.069-0.462-2.103-0.801-3.099-1.015l-0.214-0.108
		c-1.568-0.426-3.171-1.014-4.809-1.762c-1.64-0.748-3.136-1.727-4.488-2.938c-1.354-1.211-2.458-2.653-3.313-4.328
		c-0.855-1.673-1.282-3.65-1.282-5.93c0-1.994,0.444-3.847,1.336-5.557c0.89-1.71,2.119-3.206,3.687-4.488
		c1.566-1.283,3.436-2.28,5.609-2.993c2.173-0.711,4.505-1.068,7-1.068c1.638,0,3.348,0.268,5.129,0.802
		c1.78,0.534,3.383,1.265,4.809,2.19c0.783,0.499,1.406,1.158,1.87,1.977c0.462,0.82,0.694,1.656,0.694,2.512
		c0,0.57-0.089,1.068-0.267,1.496c-0.178,0.426-0.41,0.891-0.694,1.388h0.106c-0.998,1.64-2.494,2.458-4.487,2.458
		c-0.927,0-1.961-0.284-3.099-0.855l0.213,0.107c-0.641-0.355-1.354-0.641-2.137-0.854c-0.784-0.214-1.496-0.322-2.137-0.322
		c-1.212,0-2.244,0.144-3.099,0.428c-0.855,0.285-1.568,0.607-2.137,0.962c-0.571,0.358-0.98,0.713-1.229,1.068
		c-0.25,0.358-0.374,0.607-0.374,0.749c0,0.285,0.035,0.606,0.107,0.961c0.07,0.358,0.284,0.748,0.641,1.175
		c0.356,0.428,0.925,0.874,1.71,1.336c0.783,0.465,1.886,0.908,3.313,1.336c0.569,0.144,1.602,0.428,3.098,0.855
		C139.717,46.693,141.284,47.3,142.923,48.083"/>
	<path clip-path="url(#SVGID_2_)" fill="#303030" d="M192.293,30.452c1.068,1.068,1.603,2.351,1.603,3.847s-0.534,2.761-1.603,3.793
		c-1.068,1.034-2.316,1.549-3.74,1.549h-7.694v33.662c0,1.426-0.518,2.671-1.549,3.74c-1.034,1.068-2.298,1.603-3.794,1.603
		c-1.426,0-2.671-0.534-3.74-1.603c-1.068-1.069-1.603-2.314-1.603-3.74V39.641h-7.587c-1.426,0-2.671-0.515-3.74-1.549
		c-1.069-1.032-1.603-2.297-1.603-3.793s0.534-2.779,1.603-3.847c1.069-1.069,2.314-1.604,3.74-1.604h7.587V8.332
		c0-1.425,0.535-2.672,1.603-3.74c1.069-1.069,2.314-1.603,3.74-1.603c1.496,0,2.76,0.534,3.794,1.603
		c1.031,1.068,1.549,2.315,1.549,3.74v20.516h7.694C189.977,28.848,191.225,29.383,192.293,30.452"/>
	<path clip-path="url(#SVGID_2_)" fill="#303030" d="M221.679,28.848c1.424,0,2.671,0.534,3.74,1.604
		c1.068,1.068,1.603,2.35,1.603,3.846s-0.534,2.762-1.603,3.793c-1.069,1.034-2.316,1.55-3.74,1.55c-1.212,0-2.511,0.179-3.9,0.534
		c-1.389,0.358-2.441,1.034-3.152,2.03c-0.145,0.287-0.285,0.642-0.428,1.07c-0.071,0.213-0.106,0.391-0.106,0.534v29.493
		c0,1.426-0.535,2.671-1.604,3.74c-1.068,1.068-2.351,1.603-3.847,1.603c-1.426,0-2.671-0.534-3.74-1.603
		c-1.068-1.069-1.603-2.314-1.603-3.74V34.298c0-1.496,0.534-2.778,1.603-3.846c1.069-1.07,2.314-1.604,3.74-1.604
		c0.711,0,1.406,0.16,2.084,0.481c0.676,0.321,1.299,0.732,1.87,1.229c1.352-0.569,2.778-0.997,4.274-1.282
		C218.365,28.992,219.969,28.848,221.679,28.848"/>
	<path clip-path="url(#SVGID_2_)" fill="#303030" d="M247.645,11.644c0,1.496-0.534,2.778-1.604,3.847
		c-1.068,1.069-2.351,1.603-3.847,1.603c-1.426,0-2.671-0.534-3.74-1.603c-1.068-1.069-1.603-2.351-1.603-3.847
		c0-1.424,0.534-2.672,1.603-3.74c1.069-1.069,2.314-1.603,3.74-1.603c1.496,0,2.778,0.534,3.847,1.603
		C247.11,8.972,247.645,10.22,247.645,11.644 M242.194,78.645c-1.426,0-2.671-0.534-3.74-1.603c-1.068-1.069-1.603-2.314-1.603-3.74
		V34.298c0-1.496,0.534-2.778,1.603-3.846c1.069-1.07,2.314-1.604,3.74-1.604c1.496,0,2.778,0.534,3.847,1.604
		c1.069,1.068,1.604,2.35,1.604,3.846v39.004c0,1.426-0.534,2.671-1.604,3.74C244.973,78.111,243.69,78.645,242.194,78.645"/>
	<path clip-path="url(#SVGID_2_)" fill="#303030" d="M298.294,28.848c3.206,0,5.895,0.642,8.068,1.924
		c2.172,1.282,3.937,2.868,5.29,4.755c1.352,1.888,2.332,3.954,2.938,6.198c0.604,2.244,0.908,4.328,0.908,6.251v25.326
		c0,1.426-0.534,2.671-1.603,3.74c-1.069,1.068-2.352,1.603-3.848,1.603c-1.426,0-2.672-0.534-3.739-1.603
		c-1.069-1.069-1.604-2.314-1.604-3.74V47.976c0-0.427-0.071-1.104-0.214-2.03c-0.144-0.925-0.464-1.887-0.962-2.885
		c-0.571-1.211-1.229-2.084-1.977-2.618c-0.748-0.534-1.835-0.802-3.26-0.802c-1.426,0-2.528,0.268-3.312,0.802
		c-0.785,0.534-1.461,1.407-2.031,2.618c-0.424,0.998-0.708,1.96-0.848,2.885c-0.143,0.926-0.212,1.603-0.212,2.03v25.326
		c0,1.426-0.531,2.671-1.59,3.74c-1.061,1.068-2.367,1.603-3.92,1.603c-1.414,0-2.651-0.534-3.71-1.603
		c-1.062-1.069-1.591-2.314-1.591-3.74V47.976c0-0.427-0.071-1.104-0.212-2.03c-0.141-0.925-0.424-1.887-0.848-2.885
		c-0.571-1.211-1.247-2.084-2.03-2.618c-0.785-0.534-1.889-0.802-3.312-0.802c-2.494,0-4.274,1.141-5.344,3.42
		c-0.427,0.998-0.713,1.96-0.854,2.885c-0.143,0.926-0.213,1.603-0.213,2.03v25.326c0,1.426-0.535,2.671-1.604,3.74
		c-1.068,1.068-2.351,1.603-3.847,1.603c-1.426,0-2.672-0.534-3.74-1.603c-1.068-1.069-1.603-2.314-1.603-3.74V34.298
		c0-1.496,0.534-2.778,1.603-3.846c1.068-1.07,2.314-1.604,3.74-1.604c0.641,0,1.317,0.179,2.03,0.534
		c0.711,0.358,1.352,0.785,1.924,1.283c1.282-0.57,2.563-1.015,3.846-1.336c1.283-0.321,2.635-0.481,4.062-0.481
		c2.421,0,4.606,0.428,6.556,1.282c1.946,0.856,3.663,1.996,5.147,3.42c1.622-1.424,3.391-2.564,5.305-3.42
		C293.598,29.276,295.8,28.848,298.294,28.848"/>
	<path clip-path="url(#SVGID_2_)" fill="#303030" d="M347.341,78.645c-0.927,0-1.532-0.035-1.815-0.105
		c-3.278-0.144-6.306-0.892-9.084-2.245c-2.778-1.353-5.093-3.206-6.946-5.557c-3.562-4.559-5.342-10.223-5.342-16.99
		c0-3.42,0.569-6.643,1.709-9.671c1.139-3.028,2.688-5.663,4.648-7.908c1.958-2.244,4.237-4.024,6.84-5.342
		c2.6-1.318,5.396-1.978,8.388-1.978c6.054,0,11.22,2.352,15.495,7.053c1.993,2.209,3.508,4.739,4.541,7.587
		c1.032,2.85,1.55,5.877,1.55,9.083c0,1.496-0.535,2.779-1.604,3.848s-2.315,1.603-3.739,1.603h-26.822
		c0.356,1.141,0.836,2.281,1.443,3.42c0.604,1.141,1.335,2.174,2.189,3.1c0.855,0.926,1.87,1.692,3.046,2.297
		c1.176,0.605,2.546,0.944,4.114,1.015h0.641c0.926,0,2.119-0.088,3.58-0.267c1.459-0.178,2.975-0.802,4.542-1.87
		c1.139-0.569,2.172-0.855,3.099-0.855c0.926,0,1.834,0.251,2.725,0.748c0.89,0.499,1.62,1.247,2.191,2.244
		c0.355,0.286,0.534,1.033,0.534,2.244c0,1.854-0.854,3.42-2.565,4.702c-2.494,1.64-4.968,2.689-7.426,3.152
		C350.814,78.415,348.837,78.645,347.341,78.645 M355.783,47.228c-1.068-2.421-2.316-4.237-3.74-5.449
		c-1.426-1.211-3.42-1.818-5.983-1.818c-2.495,0-4.473,0.642-5.932,1.924c-1.461,1.282-2.832,3.064-4.113,5.343H355.783z"/>
	<path clip-path="url(#SVGID_2_)" fill="#00AC9A" d="M49.569,0.704c-26.959,0-48.813,21.855-48.813,48.814
		S22.61,98.332,49.569,98.332c26.959,0,48.814-21.854,48.814-48.813S76.528,0.704,49.569,0.704 M36.389,26.075
		c0-1.194,0.658-2.28,1.718-2.831c0.453-0.236,0.963-0.361,1.474-0.361c0.658,0,1.291,0.199,1.83,0.577l29.765,20.825
		c-0.451,0.165-0.886,0.377-1.287,0.658l-4.454,3.116L42.774,32.204v18.809c-0.906-0.633-2.006-1.008-3.193-1.008
		s-2.286,0.375-3.192,1.008V26.075z M74.923,52.137L41.41,75.584c-0.957,0.668-2.264,0.756-3.303,0.214
		c-1.06-0.551-1.718-1.635-1.718-2.83V55.593c0-1.76,1.432-3.192,3.192-3.192c1.76,0,3.193,1.433,3.193,3.192v11.245l28.488-19.931
		c0.54-0.379,1.171-0.579,1.826-0.579c1.043,0,2.023,0.511,2.62,1.364C76.717,49.134,76.364,51.129,74.923,52.137"/>
</g>
</svg>
