<?xml version="1.0" encoding="utf-8"?>
<!-- Generator: Adobe Illustrator 16.0.0, SVG Export Plug-In . SVG Version: 6.00 Build 0)  -->
<!DOCTYPE svg PUBLIC "-//W3C//DTD SVG 1.1//EN" "http://www.w3.org/Graphics/SVG/1.1/DTD/svg11.dtd">
<svg version="1.1" id="Layer_1" xmlns="http://www.w3.org/2000/svg" xmlns:xlink="http://www.w3.org/1999/xlink" x="0px" y="0px"
	 width="154.5px" height="163.121px" viewBox="0 0 154.5 163.121" enable-background="new 0 0 154.5 163.121" xml:space="preserve">
<g>
	<defs>
		<rect id="SVGID_1_" width="154.5" height="163.121"/>
	</defs>
	<clipPath id="SVGID_2_">
		<use xlink:href="#SVGID_1_"  overflow="visible"/>
	</clipPath>
	
		<rect x="2.25" y="2.25" clip-path="url(#SVGID_2_)" fill="none" stroke="#303031" stroke-width="4.5" stroke-linejoin="round" stroke-miterlimit="10" width="150" height="121.153"/>
	
		<rect x="2.25" y="2.25" clip-path="url(#SVGID_2_)" fill="none" stroke="#303031" stroke-width="4.5" stroke-linejoin="round" stroke-miterlimit="10" width="150" height="16.099"/>
	<path clip-path="url(#SVGID_2_)" fill="#303031" d="M142.173,10.299c0,1.587-1.287,2.874-2.874,2.874
		c-1.588,0-2.874-1.287-2.874-2.874s1.286-2.874,2.874-2.874C140.886,7.425,142.173,8.712,142.173,10.299"/>
	<path clip-path="url(#SVGID_2_)" fill="#303031" d="M132.113,10.299c0,1.587-1.287,2.874-2.874,2.874s-2.874-1.287-2.874-2.874
		s1.287-2.874,2.874-2.874S132.113,8.712,132.113,10.299"/>
	<path clip-path="url(#SVGID_2_)" fill="#303031" d="M122.055,10.299c0,1.587-1.287,2.874-2.874,2.874
		c-1.588,0-2.874-1.287-2.874-2.874s1.286-2.874,2.874-2.874C120.768,7.425,122.055,8.712,122.055,10.299"/>
	
		<path clip-path="url(#SVGID_2_)" fill="none" stroke="#303031" stroke-width="4.5" stroke-linecap="round" stroke-linejoin="round" stroke-miterlimit="10" d="
		M89.541,98.995h9.629c11.484,0,20.793-9.31,20.793-20.793v-1.268c0-11.484-9.309-20.793-20.793-20.793
		c0-11.678-9.467-21.145-21.145-21.145h-0.564c-11.678,0-21.145,9.467-21.145,21.145h-0.352c-11.834,0-21.427,9.593-21.427,21.427
		c0,11.833,9.593,21.427,21.427,21.427h8.994"/>
	
		<polyline clip-path="url(#SVGID_2_)" fill="none" stroke="#303031" stroke-width="4.5" stroke-linecap="round" stroke-linejoin="round" stroke-miterlimit="10" points="
		64.958,82.271 77.25,69.98 89.542,82.271 	"/>
	
		<line clip-path="url(#SVGID_2_)" fill="none" stroke="#303031" stroke-width="4.5" stroke-linecap="round" stroke-linejoin="round" stroke-miterlimit="10" x1="77.25" y1="82.271" x2="77.25" y2="108.91"/>
	<rect x="58.227" y="117.856" clip-path="url(#SVGID_2_)" fill="#FFFFFF" width="38.046" height="43.015"/>
	
		<rect x="58.227" y="117.856" clip-path="url(#SVGID_2_)" fill="none" stroke="#303031" stroke-width="4.5" stroke-linecap="round" stroke-linejoin="round" stroke-miterlimit="10" width="38.046" height="43.015"/>
	<polygon clip-path="url(#SVGID_2_)" fill="#303031" points="71.009,132.157 83.491,139.363 71.009,146.57 	"/>
	
		<polygon clip-path="url(#SVGID_2_)" fill="none" stroke="#303031" stroke-width="1.079" stroke-linejoin="round" stroke-miterlimit="10" points="
		71.009,132.157 83.491,139.363 71.009,146.57 	"/>
	<rect x="96.273" y="117.856" clip-path="url(#SVGID_2_)" fill="#FFFFFF" width="9.153" height="43.015"/>
	
		<rect x="96.273" y="117.856" clip-path="url(#SVGID_2_)" fill="none" stroke="#303031" stroke-width="4.5" stroke-linecap="round" stroke-linejoin="round" stroke-miterlimit="10" width="9.153" height="43.015"/>
	<rect x="96.273" y="125.353" clip-path="url(#SVGID_2_)" fill="#303031" width="9.153" height="5.897"/>
	<rect x="96.273" y="136.415" clip-path="url(#SVGID_2_)" fill="#303031" width="9.153" height="5.898"/>
	<rect x="96.273" y="147.479" clip-path="url(#SVGID_2_)" fill="#303031" width="9.153" height="5.897"/>
	<rect x="49.073" y="117.856" clip-path="url(#SVGID_2_)" fill="#FFFFFF" width="9.154" height="43.015"/>
	
		<rect x="49.073" y="117.856" clip-path="url(#SVGID_2_)" fill="none" stroke="#303031" stroke-width="4.5" stroke-linecap="round" stroke-linejoin="round" stroke-miterlimit="10" width="9.154" height="43.015"/>
	<rect x="49.073" y="125.353" clip-path="url(#SVGID_2_)" fill="#303031" width="9.154" height="5.897"/>
	<rect x="49.073" y="136.415" clip-path="url(#SVGID_2_)" fill="#303031" width="9.154" height="5.898"/>
	<rect x="49.073" y="147.479" clip-path="url(#SVGID_2_)" fill="#303031" width="9.154" height="5.897"/>
</g>
</svg>
