<?xml version="1.0" encoding="utf-8"?>
<!-- Generator: Adobe Illustrator 19.1.0, SVG Export Plug-In . SVG Version: 6.00 Build 0)  -->
<!DOCTYPE svg PUBLIC "-//W3C//DTD SVG 1.1//EN" "http://www.w3.org/Graphics/SVG/1.1/DTD/svg11.dtd">
<svg version="1.1" id="Calque_1" xmlns="http://www.w3.org/2000/svg" xmlns:xlink="http://www.w3.org/1999/xlink" x="0px" y="0px"
	 width="23.7px" height="22.7px" viewBox="0 0 23.7 22.7" enable-background="new 0 0 23.7 22.7" xml:space="preserve">
<path fill="#898B8E" d="M23.48,13.74c0.29,0.29,0.29,0.77,0,1.06c-0.15,0.15-0.34,0.22-0.53,0.22s-0.38-0.07-0.53-0.22l-2.4-2.4
	l-2.4,2.4c-0.15,0.15-0.34,0.22-0.53,0.22s-0.38-0.07-0.53-0.22c-0.29-0.29-0.29-0.77,0-1.06l2.4-2.4l-2.4-2.4
	c-0.29-0.29-0.29-0.77,0-1.06s0.77-0.29,1.06,0l2.4,2.4l2.4-2.4c0.29-0.29,0.77-0.29,1.06,0s0.29,0.77,0,1.06l-2.4,2.4L23.48,13.74z
	 M13.87,0.75v21.2c0,0.29-0.16,0.55-0.42,0.67c-0.11,0.05-0.22,0.08-0.33,0.08c-0.16,0-0.32-0.05-0.46-0.16L4.3,16.13H0.75
	C0.34,16.13,0,15.8,0,15.38V7.32C0,6.9,0.34,6.57,0.75,6.57H4.3l8.36-6.41c0.23-0.17,0.53-0.2,0.79-0.08
	C13.71,0.2,13.87,0.47,13.87,0.75z M12.37,2.27L5.01,7.91c-0.13,0.1-0.29,0.16-0.46,0.16H1.5v6.57h3.06c0.17,0,0.33,0.05,0.46,0.16
	l7.36,5.64V2.27z"/>
</svg>
