<?xml version="1.0" encoding="utf-8"?>
<!-- Generator: Adobe Illustrator 19.1.0, SVG Export Plug-In . SVG Version: 6.00 Build 0)  -->
<!DOCTYPE svg PUBLIC "-//W3C//DTD SVG 1.1//EN" "http://www.w3.org/Graphics/SVG/1.1/DTD/svg11.dtd">
<svg version="1.1" id="Calque_1" xmlns="http://www.w3.org/2000/svg" xmlns:xlink="http://www.w3.org/1999/xlink" x="0px" y="0px"
	 width="41.26px" height="41.26px" viewBox="0 0 41.26 41.26" enable-background="new 0 0 41.26 41.26" xml:space="preserve">
<path fill="#FFFFFF" d="M14.96,31.38c-0.13,0-0.26-0.03-0.37-0.1c-0.23-0.13-0.38-0.38-0.38-0.65v-20c0-0.27,0.14-0.52,0.38-0.65
	c0.23-0.13,0.52-0.13,0.75,0l17,10c0.23,0.13,0.37,0.38,0.37,0.65s-0.14,0.51-0.37,0.65l-17,10C15.23,31.35,15.1,31.38,14.96,31.38z
	 M15.71,11.94v17.38l14.77-8.69L15.71,11.94z M20.63,41.26C9.25,41.26,0,32,0,20.63S9.25,0,20.63,0s20.63,9.25,20.63,20.63
	S32,41.26,20.63,41.26z M20.63,1.5C10.08,1.5,1.5,10.08,1.5,20.63s8.58,19.13,19.13,19.13s19.13-8.58,19.13-19.13
	S31.18,1.5,20.63,1.5z"/>
</svg>
