<svg id="Calque_1" data-name="Calque 1" xmlns="http://www.w3.org/2000/svg" viewBox="0 0 21.44 21.48"><defs><style>.cls-1{fill:#898b8e;}</style></defs><title>back-to</title><path class="cls-1" d="M6.26,9c-.42,0-.74-.14-.74-.53s.17-.52.55-.58A2,2,0,0,0,7.8,6.81c.31-.6.4-.66.85-.66.29,0,.56.2.56.7v8a.87.87,0,1,1-1.74,0V9Zm3.76.4c0-1.51.22-3.2,2.61-3.2s2.63,1.69,2.61,3.2v3.15c0,1.49-.22,3.18-2.61,3.18S10,14.06,10,12.57Zm1.74,3.38c0,1.2.17,1.7.87,1.7s.87-.51.87-1.7V9.17c0-1.21-.17-1.7-.87-1.7s-.87.49-.87,1.7ZM18.3,3.14A10.76,10.76,0,0,0,3.59,2.7L2.51,1.62,1.34,6,5.68,4.79l-1-1A9.24,9.24,0,1,1,1.5,11.68.75.75,0,0,0,0,11.83,10.75,10.75,0,1,0,18.3,3.14Z"/></svg>