<svg id="Calque_1" data-name="Calque 1" xmlns="http://www.w3.org/2000/svg" viewBox="0 0 25 18.27"><defs><style>.cls-1{fill:#898b8e;}</style></defs><title>bullet hide</title><path class="cls-1" d="M13.18,3.75a4.94,4.94,0,0,0-1.36,0,11.36,11.36,0,0,0-1.32.17l1.36,1.36a3.88,3.88,0,0,1,.52-.07h.23a3.86,3.86,0,0,1,3.75,4.57L17.59,11a5.38,5.38,0,0,0-.45-4.7A21,21,0,0,1,23,10.51a23.38,23.38,0,0,1-3.19,2.68l1.08,1.08A23.91,23.91,0,0,0,25,10.51S19.76,4.17,13.18,3.75Z"/><path class="cls-1" d="M4.64.22A.75.75,0,1,0,3.58,1.28L7.26,5A23,23,0,0,0,0,10.51s5.6,6.8,12.5,6.8a12.85,12.85,0,0,0,5.67-1.44L20.35,18A.75.75,0,0,0,21.42,17Zm10,12.15a3.83,3.83,0,0,1-2.18.69A3.94,3.94,0,0,1,8.57,9.14,3.81,3.81,0,0,1,9.26,7ZM12.5,15.8c-4.62,0-8.71-3.55-10.45-5.3A21,21,0,0,1,7.86,6.32a5.42,5.42,0,0,0,7.91,7.15L17,14.74A11.08,11.08,0,0,1,12.5,15.8Z"/></svg>