<?xml version="1.0" encoding="utf-8"?>
<!-- Generator: Adobe Illustrator 19.1.0, SVG Export Plug-In . SVG Version: 6.00 Build 0)  -->
<!DOCTYPE svg PUBLIC "-//W3C//DTD SVG 1.1//EN" "http://www.w3.org/Graphics/SVG/1.1/DTD/svg11.dtd">
<svg version="1.1" id="Calque_1" xmlns="http://www.w3.org/2000/svg" xmlns:xlink="http://www.w3.org/1999/xlink" x="0px" y="0px"
	 width="41.26px" height="41.26px" viewBox="0 0 41.26 41.26" enable-background="new 0 0 41.26 41.26" xml:space="preserve">
<path fill="#0CAC9A" d="M20.63,0C9.25,0,0,9.25,0,20.63s9.25,20.63,20.63,20.63S41.26,32,41.26,20.63S32,0,20.63,0z"/>
<path fill="#FFFFFF" d="M32.34,19.98l-17-10c-0.23-0.14-0.52-0.14-0.75,0c-0.23,0.13-0.38,0.38-0.38,0.65v20
	c0,0.27,0.14,0.52,0.38,0.65c0.12,0.07,0.24,0.1,0.37,0.1c0.13,0,0.26-0.03,0.38-0.1l17-10c0.23-0.13,0.37-0.38,0.37-0.65
	S32.57,20.12,32.34,19.98z"/>
</svg>
