<?xml version="1.0" encoding="utf-8"?>
<!-- Generator: Adobe Illustrator 19.1.0, SVG Export Plug-In . SVG Version: 6.00 Build 0)  -->
<!DOCTYPE svg PUBLIC "-//W3C//DTD SVG 1.1//EN" "http://www.w3.org/Graphics/SVG/1.1/DTD/svg11.dtd">
<svg version="1.1" id="Calque_1" xmlns="http://www.w3.org/2000/svg" xmlns:xlink="http://www.w3.org/1999/xlink" x="0px" y="0px"
	 width="20.99px" height="12.96px" viewBox="0 0 20.99 12.96" enable-background="new 0 0 20.99 12.96" xml:space="preserve">
<path fill="#898B8E" d="M20.61,0.1c-0.23-0.13-0.52-0.13-0.75,0l-8.61,5.07V0.75c0-0.27-0.14-0.52-0.38-0.65
	c-0.23-0.13-0.52-0.13-0.75,0L1.5,5.17V0.75C1.5,0.34,1.16,0,0.75,0S0,0.34,0,0.75v11.46c0,0.41,0.34,0.75,0.75,0.75
	s0.75-0.34,0.75-0.75V7.79l8.61,5.07c0.12,0.07,0.25,0.1,0.38,0.1c0.13,0,0.26-0.03,0.37-0.1c0.23-0.13,0.38-0.38,0.38-0.65V7.79
	l8.61,5.07c0.12,0.07,0.25,0.1,0.38,0.1c0.13,0,0.26-0.03,0.37-0.1c0.23-0.13,0.38-0.38,0.38-0.65V0.75
	C20.99,0.48,20.84,0.23,20.61,0.1z M9.74,10.9L2.23,6.48l7.51-4.42V10.9z M19.49,10.9l-7.51-4.42l7.51-4.42V10.9z"/>
</svg>
