<svg id="Calque_1" data-name="Calque 1" xmlns="http://www.w3.org/2000/svg" viewBox="0 0 25 18.27"><defs><style>.cls-1{fill:#898b8e;}.cls-2{fill:#0cac9a;}</style></defs><title>bullet show</title><path class="cls-1" d="M13.18,4.72a4.94,4.94,0,0,0-1.36,0C5.24,5.14,0,11.47,0,11.47s5.6,6.8,12.5,6.8S25,11.47,25,11.47,19.76,5.14,13.18,4.72ZM12.5,16.77c-4.62,0-8.71-3.55-10.45-5.3A21,21,0,0,1,7.86,7.28a5.43,5.43,0,1,0,9.27,0A21,21,0,0,1,23,11.47C21.21,13.22,17.11,16.77,12.5,16.77Z"/><path class="cls-2" d="M16.43,10.1a3.93,3.93,0,1,1-4-3.92h.23A3.93,3.93,0,0,1,16.43,10.1Z"/></svg>