<?xml version="1.0" encoding="utf-8"?>
<!-- Generator: Adobe Illustrator 19.1.0, SVG Export Plug-In . SVG Version: 6.00 Build 0)  -->
<!DOCTYPE svg PUBLIC "-//W3C//DTD SVG 1.1//EN" "http://www.w3.org/Graphics/SVG/1.1/DTD/svg11.dtd">
<svg version="1.1" id="Calque_1" xmlns="http://www.w3.org/2000/svg" xmlns:xlink="http://www.w3.org/1999/xlink" x="0px" y="0px"
	 width="24.39px" height="22.7px" viewBox="0 0 24.39 22.7" enable-background="new 0 0 24.39 22.7" xml:space="preserve">
<path fill="#898B8E" d="M13.45,0.08c-0.26-0.13-0.56-0.1-0.79,0.08L4.3,6.57H0.75C0.34,6.57,0,6.9,0,7.32v8.07
	c0,0.41,0.34,0.75,0.75,0.75H4.3l8.36,6.41c0.13,0.1,0.29,0.16,0.46,0.16c0.11,0,0.23-0.03,0.33-0.08c0.26-0.13,0.42-0.39,0.42-0.67
	V0.75C13.87,0.47,13.71,0.2,13.45,0.08z M12.37,20.43l-7.36-5.64c-0.13-0.1-0.29-0.16-0.46-0.16H1.5V8.07h3.06
	c0.17,0,0.33-0.05,0.46-0.16l7.36-5.64V20.43z M17.1,14.72c-0.41,0-0.75-0.34-0.75-0.75s0.34-0.75,0.75-0.75
	c0.95,0,1.73-0.78,1.73-1.73s-0.78-1.73-1.73-1.73c-0.41,0-0.75-0.34-0.75-0.75s0.34-0.75,0.75-0.75c1.78,0,3.23,1.45,3.23,3.23
	S18.88,14.72,17.1,14.72z M24.39,11.49c0,3.68-2.75,6.83-6.4,7.33c-0.03,0-0.07,0.01-0.1,0.01c-0.37,0-0.69-0.27-0.74-0.65
	c-0.06-0.41,0.23-0.79,0.64-0.84c2.91-0.4,5.1-2.91,5.1-5.84s-2.19-5.45-5.1-5.84c-0.41-0.06-0.7-0.43-0.64-0.84s0.43-0.7,0.84-0.64
	C21.64,4.65,24.39,7.8,24.39,11.49z"/>
</svg>
