<?xml version="1.0" encoding="utf-8"?>
<!-- Generator: Adobe Illustrator 19.1.0, SVG Export Plug-In . SVG Version: 6.00 Build 0)  -->
<!DOCTYPE svg PUBLIC "-//W3C//DTD SVG 1.1//EN" "http://www.w3.org/Graphics/SVG/1.1/DTD/svg11.dtd">
<svg version="1.1" id="Calque_1" xmlns="http://www.w3.org/2000/svg" xmlns:xlink="http://www.w3.org/1999/xlink" x="0px" y="0px"
	 width="16.53px" height="21.5px" viewBox="0 0 16.53 21.5" enable-background="new 0 0 16.53 21.5" xml:space="preserve">
<path fill="#898B8E" d="M3.31,21.5C1.48,21.5,0,20.01,0,18.19V3.31C0,1.48,1.48,0,3.31,0s3.31,1.48,3.31,3.31v14.88
	C6.62,20.01,5.14,21.5,3.31,21.5z M3.31,1.5c-1,0-1.81,0.81-1.81,1.81v14.88c0,1,0.81,1.81,1.81,1.81c1,0,1.81-0.81,1.81-1.81V3.31
	C5.12,2.31,4.31,1.5,3.31,1.5z M13.22,21.5c-1.83,0-3.31-1.49-3.31-3.31V3.31C9.91,1.48,11.39,0,13.22,0c1.83,0,3.31,1.48,3.31,3.31
	v14.88C16.53,20.01,15.04,21.5,13.22,21.5z M13.22,1.5c-1,0-1.81,0.81-1.81,1.81v14.88c0,1,0.81,1.81,1.81,1.81
	c1,0,1.81-0.81,1.81-1.81V3.31C15.03,2.31,14.22,1.5,13.22,1.5z"/>
</svg>
