<?xml version="1.0" encoding="utf-8"?>
<!-- Generator: Adobe Illustrator 19.1.0, SVG Export Plug-In . SVG Version: 6.00 Build 0)  -->
<!DOCTYPE svg PUBLIC "-//W3C//DTD SVG 1.1//EN" "http://www.w3.org/Graphics/SVG/1.1/DTD/svg11.dtd">
<svg version="1.1" id="Calque_1" xmlns="http://www.w3.org/2000/svg" xmlns:xlink="http://www.w3.org/1999/xlink" x="0px" y="0px"
	 width="14px" height="14px" viewBox="0 0 14 14" enable-background="new 0 0 14 14" xml:space="preserve">
<path fill="#898B8E" d="M13.1,4.01H0.9C0.4,4.01,0,3.6,0,3.11l0-0.2c0-0.5,0.4-0.9,0.9-0.9l12.2,0c0.5,0,0.9,0.4,0.9,0.9v0.2
	C14,3.6,13.6,4.01,13.1,4.01z M9.1,0H4.9C4.4,0,4,0.4,4,0.9V2h6V0.9C10,0.4,9.6,0,9.1,0z M10,5v7.46c0,0.29-0.22,0.53-0.5,0.53
	S9,12.75,9,12.46V5H7v7.46c0,0.29-0.22,0.53-0.5,0.53S6,12.75,6,12.46V5H4v7.46c0,0.29-0.22,0.53-0.5,0.53S3,12.75,3,12.46V5H2v8.08
	c0,0.5,0.4,0.9,0.9,0.9h8.2c0.5,0,0.9-0.4,0.9-0.9V5H10z"/>
</svg>
