<?xml version="1.0" encoding="utf-8"?>
<!-- Generator: Adobe Illustrator 19.1.0, SVG Export Plug-In . SVG Version: 6.00 Build 0)  -->
<!DOCTYPE svg PUBLIC "-//W3C//DTD SVG 1.1//EN" "http://www.w3.org/Graphics/SVG/1.1/DTD/svg11.dtd">
<svg version="1.1" id="Calque_1" xmlns="http://www.w3.org/2000/svg" xmlns:xlink="http://www.w3.org/1999/xlink" x="0px" y="0px"
	 width="17px" height="16px" viewBox="0 0 17 16" enable-background="new 0 0 17 16" xml:space="preserve">
<path fill="#898B8E" d="M10,3.17V0H0v3.17c0,1.76,0.92,3.38,2.43,4.29L3.33,8L2.43,8.54C0.92,9.45,0,11.07,0,12.83V16h10v-3.17
	c0-1.76-0.92-3.38-2.43-4.29L6.67,8l0.91-0.54C9.08,6.55,10,4.93,10,3.17z M8,12.83V14H2v-1.17c0-1.05,0.56-2.03,1.46-2.57L5,9.33
	l1.54,0.93C7.44,10.8,8,11.78,8,12.83z M6.54,5.74L5,6.67L3.46,5.74C2.56,5.2,2,4.22,2,3.17V2h6v1.17C8,4.22,7.44,5.2,6.54,5.74z"/>
<path fill="#898B8E" d="M3.97,4.88C3.37,4.52,3,3.87,3,3.17V3h4v0.17c0,0.7-0.37,1.36-0.97,1.71L5,5.5L3.97,4.88z"/>
<rect x="14" y="1" fill="#898B8E" width="1" height="13"/>
<rect x="15" y="12" fill="#898B8E" width="1" height="1"/>
<rect x="13" y="12" fill="#898B8E" width="1" height="1"/>
<rect x="16" y="11" fill="#898B8E" width="1" height="1"/>
<rect x="12" y="11" fill="#898B8E" width="1" height="1"/>
</svg>
