<?xml version="1.0" encoding="utf-8"?>
<!-- Generator: Adobe Illustrator 16.0.0, SVG Export Plug-In . SVG Version: 6.00 Build 0)  -->
<!DOCTYPE svg PUBLIC "-//W3C//DTD SVG 1.1//EN" "http://www.w3.org/Graphics/SVG/1.1/DTD/svg11.dtd">
<svg version="1.1" id="Calque_1" xmlns="http://www.w3.org/2000/svg" xmlns:xlink="http://www.w3.org/1999/xlink" x="0px" y="0px"
	 width="42px" height="42px" viewBox="0 0 42 42" enable-background="new 0 0 42 42" xml:space="preserve">
<path fill="#434344" d="M0.23,17.94c0.62-4.2,2.45-8.03,5.26-11.09L2.01,6.89c-0.01,0-0.01,0-0.02,0c-0.8,0-1.46-0.65-1.47-1.45
	c-0.01-0.82,0.64-1.49,1.45-1.5l7.36-0.1c0.01,0,0.01,0,0.02,0c0.07,0,0.14,0.01,0.21,0.02h0.01C9.66,3.88,9.74,3.9,9.82,3.93
	c0.01,0,0.02,0.01,0.04,0.01C9.93,3.96,9.99,4,10.06,4.03c0.02,0.01,0.04,0.02,0.06,0.03c0.06,0.03,0.11,0.07,0.16,0.12
	c0.03,0.02,0.05,0.04,0.07,0.06c0.04,0.04,0.08,0.09,0.12,0.13c0.02,0.02,0.04,0.04,0.06,0.07c0,0.01,0.01,0.01,0.01,0.02
	c0.03,0.04,0.05,0.08,0.07,0.13c0.03,0.04,0.05,0.09,0.07,0.13c0.01,0.021,0.01,0.04,0.02,0.061c0.07,0.17,0.1,0.34,0.1,0.52
	l0.1,7.36c0.01,0.81-0.64,1.48-1.45,1.49c-0.01,0-0.01,0-0.02,0c-0.8,0-1.46-0.65-1.47-1.45L7.92,8.58
	C1.99,14.82,1.2,24.63,6.51,31.77c4.47,6.01,12.3,8.66,19.5,6.58c0.78-0.229,1.6,0.23,1.82,1.01c0.23,0.781-0.23,1.601-1.01,1.82
	c-1.9,0.551-3.84,0.811-5.771,0.811c-6.54,0-12.9-3.07-16.91-8.471C0.8,29.02-0.59,23.49,0.23,17.94z M31.07,29.33l0.1,7.37
	c0,0.01,0,0.01,0,0.021c0,0.069,0.01,0.139,0.02,0.199c0,0.03,0.011,0.061,0.011,0.09c0.01,0.061,0.03,0.11,0.05,0.17
	c0.01,0.041,0.02,0.07,0.04,0.11s0.05,0.08,0.069,0.13c0.021,0.04,0.051,0.09,0.08,0.13c0.011,0.011,0.011,0.021,0.021,0.03
	c0.021,0.02,0.04,0.04,0.05,0.061c0.051,0.06,0.1,0.109,0.15,0.159c0.029,0.03,0.061,0.05,0.1,0.08c0.051,0.04,0.11,0.07,0.17,0.11
	c0.041,0.02,0.07,0.039,0.11,0.06c0.069,0.03,0.14,0.05,0.21,0.07c0.029,0.01,0.061,0.021,0.09,0.03c0.1,0.02,0.21,0.039,0.32,0.039
	c0.01,0,0.01,0,0.02,0l7.36-0.1c0.81-0.01,1.46-0.68,1.45-1.49c-0.01-0.81-0.67-1.449-1.471-1.449c-0.01,0-0.01,0-0.02,0
	l-3.471,0.05c2.801-3.06,4.641-6.89,5.261-11.091c0.819-5.549-0.569-11.089-3.92-15.589c-5.2-7-14.31-10.07-22.68-7.66
	c-0.78,0.23-1.23,1.04-1.01,1.82C14.4,3.46,15.22,3.91,16,3.69c7.189-2.08,15.029,0.57,19.5,6.58c2.88,3.87,4.07,8.63,3.37,13.4
	c-0.55,3.74-2.229,7.12-4.78,9.801l-0.05-4.141c-0.011-0.811-0.67-1.45-1.47-1.45c-0.01,0-0.01,0-0.021,0
	C31.721,27.85,31.061,28.52,31.07,29.33z"/>
</svg>
