<?xml version="1.0" encoding="utf-8"?>
<!-- Generator: Adobe Illustrator 19.1.0, SVG Export Plug-In . SVG Version: 6.00 Build 0)  -->
<!DOCTYPE svg PUBLIC "-//W3C//DTD SVG 1.1//EN" "http://www.w3.org/Graphics/SVG/1.1/DTD/svg11.dtd">
<svg version="1.1" id="Calque_1" xmlns="http://www.w3.org/2000/svg" xmlns:xlink="http://www.w3.org/1999/xlink" x="0px" y="0px"
	 width="38px" height="38px" viewBox="0 0 38 38" enable-background="new 0 0 38 38" xml:space="preserve">
<path fill="#50D8B0" d="M27.44,8.44H10.56c-1.62,0-2.94,1.32-2.94,2.94v11.59c0,1.62,1.32,2.94,2.94,2.94c0.06,0,0.1,0.02,0.16,0.03
	c0.05-0.01,0.1-0.03,0.16-0.03c0.45,0,0.81,0.36,0.81,0.81v3.78l6.87-4.47c0.02-0.01,0.04-0.01,0.06-0.03
	c0.05-0.03,0.1-0.04,0.15-0.06c0.05-0.02,0.11-0.03,0.16-0.03c0.02,0,0.04-0.01,0.07-0.01h8.44c1.62,0,2.94-1.32,2.94-2.94V11.37
	C30.38,9.76,29.06,8.44,27.44,8.44z M25.5,21.44h-13c-0.45,0-0.81-0.36-0.81-0.81c0-0.45,0.36-0.81,0.81-0.81h13
	c0.45,0,0.81,0.36,0.81,0.81C26.31,21.07,25.95,21.44,25.5,21.44z M25.5,18.19h-13c-0.45,0-0.81-0.36-0.81-0.81
	c0-0.45,0.36-0.81,0.81-0.81h13c0.45,0,0.81,0.36,0.81,0.81C26.31,17.82,25.95,18.19,25.5,18.19z M25.5,14.94h-13
	c-0.45,0-0.81-0.36-0.81-0.81c0-0.45,0.36-0.81,0.81-0.81h13c0.45,0,0.81,0.36,0.81,0.81C26.31,14.57,25.95,14.94,25.5,14.94z M33,0
	H5C2.24,0,0,2.24,0,5v28c0,2.76,2.24,5,5,5h28c2.76,0,5-2.24,5-5V5C38,2.24,35.76,0,33,0z M32,22.97c0,2.52-2.05,4.56-4.56,4.56
	h-8.2l-7.92,5.15c-0.13,0.09-0.29,0.13-0.44,0.13c-0.13,0-0.27-0.03-0.39-0.1c-0.26-0.14-0.42-0.42-0.42-0.71v-4.52
	C7.78,27.23,6,25.31,6,22.97V11.37c0-2.52,2.05-4.56,4.56-4.56h16.88c2.52,0,4.56,2.05,4.56,4.56V22.97z"/>
</svg>
