<?xml version="1.0" encoding="utf-8"?>
<!-- Generator: Adobe Illustrator 19.1.0, SVG Export Plug-In . SVG Version: 6.00 Build 0)  -->
<!DOCTYPE svg PUBLIC "-//W3C//DTD SVG 1.1//EN" "http://www.w3.org/Graphics/SVG/1.1/DTD/svg11.dtd">
<svg version="1.1" id="Calque_1" xmlns="http://www.w3.org/2000/svg" xmlns:xlink="http://www.w3.org/1999/xlink" x="0px" y="0px"
	 width="39.93px" height="34.23px" viewBox="0 0 39.93 34.23" enable-background="new 0 0 39.93 34.23" xml:space="preserve">
<path fill="#0CAC9A" d="M19.97,11.75c0.83,0,1.5,0.67,1.5,1.5v4.93h4.93c0.83,0,1.5,0.67,1.5,1.5s-0.67,1.5-1.5,1.5h-4.93v4.93
	c0,0.83-0.67,1.5-1.5,1.5s-1.5-0.67-1.5-1.5v-4.93h-4.93c-0.83,0-1.5-0.67-1.5-1.5s0.67-1.5,1.5-1.5h4.93v-4.93
	C18.47,12.42,19.14,11.75,19.97,11.75z M39.93,6.63v26.09c0,0.83-0.67,1.5-1.5,1.5H1.5c-0.83,0-1.5-0.67-1.5-1.5V6.63V1.5
	C0,0.67,0.67,0,1.5,0h16.58c0.61,0,1.16,0.37,1.39,0.94l1.7,4.2h17.25C39.26,5.13,39.93,5.81,39.93,6.63z M3,5.13h14.94L17.07,3H3
	V5.13z M36.93,8.13H20.17H3v23.09h33.93V8.13z"/>
</svg>
