<?xml version="1.0" encoding="utf-8"?>
<!-- Generator: Adobe Illustrator 21.0.2, SVG Export Plug-In . SVG Version: 6.00 Build 0)  -->
<svg version="1.1" id="Calque_1" xmlns="http://www.w3.org/2000/svg" xmlns:xlink="http://www.w3.org/1999/xlink" x="0px" y="0px"
	 viewBox="0 0 24 24" enable-background="new 0 0 24 24" xml:space="preserve">
<path fill="#898B8E" d="M12,0C5.37,0,0,5.37,0,12c0,6.63,5.37,12,12,12c6.63,0,12-5.37,12-12C24,5.37,18.63,0,12,0z M5,19l1.1-3.98
	l2.89,2.89L5,19z M10.15,16.74l-2.89-2.89l6.01-6.01l2.89,2.89L10.15,16.74z M18.79,8.1l-1.46,1.46l-2.89-2.89l1.46-1.46
	c0.28-0.28,0.75-0.28,1.03,0l1.86,1.86C19.07,7.35,19.07,7.82,18.79,8.1z"/>
</svg>
