<?xml version="1.0" encoding="utf-8"?>
<!-- Generator: Adobe Illustrator 16.0.0, SVG Export Plug-In . SVG Version: 6.00 Build 0)  -->
<!DOCTYPE svg PUBLIC "-//W3C//DTD SVG 1.1//EN" "http://www.w3.org/Graphics/SVG/1.1/DTD/svg11.dtd">
<svg version="1.1" id="Calque_1" xmlns="http://www.w3.org/2000/svg" xmlns:xlink="http://www.w3.org/1999/xlink" x="0px" y="0px"
	 width="37.879px" height="25.21px" viewBox="0 0 37.879 25.21" enable-background="new 0 0 37.879 25.21" xml:space="preserve">
<path fill="#FFFFFF" d="M37.22,1.59c-0.421-0.28-0.95-0.33-1.41-0.14L28.241,4.6V1.5c0-0.83-0.671-1.5-1.5-1.5H1.5
	C0.67,0,0,0.67,0,1.5v22.21c0,0.83,0.67,1.5,1.5,1.5h25.241c0.829,0,1.5-0.67,1.5-1.5V20.6l7.569,3.149
	c0.19,0.08,0.38,0.121,0.58,0.121c0.29,0,0.58-0.08,0.83-0.25c0.42-0.281,0.67-0.75,0.67-1.25V2.84
	C37.879,2.34,37.629,1.87,37.22,1.59z M25.241,22.21H3V3h22.241v3.86v11.5V22.21z M34.879,20.121L28.23,17.35v-9.5l6.649-2.77
	V20.121z"/>
</svg>
