<?xml version="1.0" encoding="utf-8"?>
<!-- Generator: Adobe Illustrator 19.1.0, SVG Export Plug-In . SVG Version: 6.00 Build 0)  -->
<!DOCTYPE svg PUBLIC "-//W3C//DTD SVG 1.1//EN" "http://www.w3.org/Graphics/SVG/1.1/DTD/svg11.dtd">
<svg version="1.1" id="Calque_1" xmlns="http://www.w3.org/2000/svg" xmlns:xlink="http://www.w3.org/1999/xlink" x="0px" y="0px"
	 width="15px" height="15px" viewBox="0 0 15 15" enable-background="new 0 0 15 15" xml:space="preserve">
<g>
	<path fill="#898B8E" d="M12.5,15h-10C1.12,15,0,13.88,0,12.5v-10C0,1.12,1.12,0,2.5,0h10C13.88,0,15,1.12,15,2.5v10
		C15,13.88,13.88,15,12.5,15z M2.5,1C1.67,1,1,1.67,1,2.5v10C1,13.33,1.67,14,2.5,14h10c0.83,0,1.5-0.67,1.5-1.5v-10
		C14,1.67,13.33,1,12.5,1H2.5z"/>
</g>
</svg>
