<?xml version="1.0" encoding="utf-8"?>
<!-- Generator: Adobe Illustrator 19.1.0, SVG Export Plug-In . SVG Version: 6.00 Build 0)  -->
<!DOCTYPE svg PUBLIC "-//W3C//DTD SVG 1.1//EN" "http://www.w3.org/Graphics/SVG/1.1/DTD/svg11.dtd">
<svg version="1.1" id="Calque_1" xmlns="http://www.w3.org/2000/svg" xmlns:xlink="http://www.w3.org/1999/xlink" x="0px" y="0px"
	 width="42.76px" height="42.76px" viewBox="0 0 42.76 42.76" enable-background="new 0 0 42.76 42.76" xml:space="preserve">
<path fill="#0CAC9A" d="M32.3,21.38c0,0.83-0.67,1.5-1.5,1.5h-7.92v7.92c0,0.83-0.67,1.5-1.5,1.5s-1.5-0.67-1.5-1.5v-7.92h-7.92
	c-0.83,0-1.5-0.67-1.5-1.5s0.67-1.5,1.5-1.5h7.92v-7.92c0-0.83,0.67-1.5,1.5-1.5s1.5,0.67,1.5,1.5v7.92h7.92
	C31.62,19.88,32.3,20.55,32.3,21.38z M42.76,21.38c0,11.79-9.59,21.38-21.38,21.38S0,33.17,0,21.38C0,9.59,9.59,0,21.38,0
	S42.76,9.59,42.76,21.38z M39.76,21.38C39.76,11.25,31.51,3,21.38,3S3,11.25,3,21.38c0,10.13,8.25,18.38,18.38,18.38
	S39.76,31.51,39.76,21.38z"/>
</svg>
