<?xml version="1.0" encoding="utf-8"?>
<!-- Generator: Adobe Illustrator 18.1.1, SVG Export Plug-In . SVG Version: 6.00 Build 0)  -->
<svg version="1.2" baseProfile="tiny" id="Calque_1"
	 xmlns="http://www.w3.org/2000/svg" xmlns:xlink="http://www.w3.org/1999/xlink" x="0px" y="0px" viewBox="0 0 28 28"
	 xml:space="preserve">
<path display="none" fill="#FFFFFF" d="M14,0C6.268,0,0,6.268,0,14.001C0,21.732,6.268,28,14,28c7.732,0,14-6.268,14-13.999
	C28,6.268,21.732,0,14,0z M20.654,10.588c0.007,0.147,0.01,0.295,0.01,0.444c0,4.537-3.453,9.769-9.769,9.769
	c-1.939,0-3.743-0.568-5.262-1.543c0.268,0.032,0.542,0.048,0.818,0.048c1.609,0,3.089-0.549,4.265-1.47
	c-1.503-0.028-2.77-1.021-3.207-2.384c0.209,0.04,0.425,0.062,0.646,0.062c0.313,0,0.617-0.042,0.905-0.121
	c-1.57-0.315-2.754-1.703-2.754-3.366c0-0.015,0-0.029,0.001-0.044c0.463,0.257,0.993,0.412,1.555,0.429
	c-0.921-0.615-1.528-1.666-1.528-2.858c0-0.629,0.17-1.219,0.465-1.725c1.693,2.077,4.223,3.444,7.077,3.587
	c-0.058-0.251-0.089-0.513-0.089-0.782c0-1.896,1.537-3.433,3.433-3.433c0.987,0,1.88,0.417,2.506,1.084
	c0.782-0.154,1.517-0.44,2.18-0.833c-0.256,0.802-0.801,1.474-1.51,1.9c0.695-0.083,1.356-0.268,1.972-0.541
	C21.907,9.499,21.325,10.103,20.654,10.588z"/>
<path fill="#FFFFFF" d="M14,0C6.268,0,0,6.268,0,14.001C0,21.732,6.268,28,14,28s14-6.268,14-13.999C28,6.268,21.732,0,14,0z
	 M18.248,10.84l-0.327,3.161h-2.505v9.095h-3.758v-9.095H9.75l0.029-3.161h1.869l0.023-1.484c0.021-1.297,0.038-1.536,0.14-1.907
	c0.34-1.244,1.031-1.967,2.218-2.32c0.592-0.176,1.186-0.224,2.762-0.224h1.459L18.235,6.47l-0.014,1.566l-1.127,0.028
	c-1.232,0.03-1.268,0.039-1.539,0.402c-0.103,0.138-0.113,0.24-0.13,1.263l-0.017,1.111H18.248z"/>
</svg>
