<?xml version="1.0" encoding="utf-8"?>
<!-- Generator: Adobe Illustrator 16.0.0, SVG Export Plug-In . SVG Version: 6.00 Build 0)  -->
<!DOCTYPE svg PUBLIC "-//W3C//DTD SVG 1.1//EN" "http://www.w3.org/Graphics/SVG/1.1/DTD/svg11.dtd">
<svg version="1.1" id="Calque_1" xmlns="http://www.w3.org/2000/svg" xmlns:xlink="http://www.w3.org/1999/xlink" x="0px" y="0px"
	 width="593.17px" height="593.168px" viewBox="1.09 124.326 593.17 593.168" enable-background="new 1.09 124.326 593.17 593.168"
	 xml:space="preserve">
<title>close-comment</title>
<path fill="#898B8E" d="M85.774,138.855L579.66,632.743c19.373,19.373,19.373,50.781,0,70.154l0,0
	c-19.372,19.371-50.78,19.371-70.153,0L15.619,209.01c-19.373-19.373-19.373-50.782,0-70.154l0,0
	C34.991,119.483,66.401,119.483,85.774,138.855z"/>
<path fill="#898B8E" d="M579.73,209.079L85.842,702.965c-19.371,19.373-50.78,19.373-70.153,0l0,0
	c-19.372-19.371-19.372-50.781,0-70.152l493.888-493.888c19.372-19.373,50.781-19.373,70.154,0l0,0
	C599.102,158.297,599.102,189.706,579.73,209.079z"/>
</svg>
