<?xml version="1.0" encoding="utf-8"?>
<!-- Generator: Adobe Illustrator 16.0.0, SVG Export Plug-In . SVG Version: 6.00 Build 0)  -->
<!DOCTYPE svg PUBLIC "-//W3C//DTD SVG 1.1//EN" "http://www.w3.org/Graphics/SVG/1.1/DTD/svg11.dtd">
<svg version="1.1" id="Calque_1" xmlns="http://www.w3.org/2000/svg" xmlns:xlink="http://www.w3.org/1999/xlink" x="0px" y="0px"
	 width="28px" height="28px" viewBox="0 0 28 28" enable-background="new 0 0 28 28" xml:space="preserve">
<path fill="#0CAC9A" d="M14,0C6.27,0,0,6.27,0,14c0,7.73,6.27,14,14,14c7.73,0,14-6.27,14-14C28,6.27,21.73,0,14,0z M21.66,9.9
	L11.38,20.18c-0.28,0.28-0.65,0.43-1.04,0.43c-0.08,0-0.16-0.01-0.24-0.02c-0.47-0.08-0.87-0.37-1.08-0.8l-2.96-5.96
	C5.71,13.11,6,12.22,6.73,11.86s1.61-0.06,1.97,0.66l2.05,4.13l8.83-8.831c0.57-0.57,1.5-0.57,2.08,0
	C22.23,8.4,22.23,9.33,21.66,9.9z"/>
</svg>
