<?xml version="1.0" encoding="utf-8"?>
<!-- Generator: Adobe Illustrator 16.0.0, SVG Export Plug-In . SVG Version: 6.00 Build 0)  -->
<!DOCTYPE svg PUBLIC "-//W3C//DTD SVG 1.1//EN" "http://www.w3.org/Graphics/SVG/1.1/DTD/svg11.dtd">
<svg version="1.1" id="Calque_1" xmlns="http://www.w3.org/2000/svg" xmlns:xlink="http://www.w3.org/1999/xlink" x="0px" y="0px"
	 width="22.01px" height="22.02px" viewBox="0 0 22.01 22.02" enable-background="new 0 0 22.01 22.02" xml:space="preserve">
<g>
	<path fill="#0CAC9A" d="M19.479,20.61H1.39V6.56h5.6L8.4,5.19L8.36,5.15H1.39C0.62,5.15,0,5.781,0,6.56v14.05
		c0,0.78,0.62,1.41,1.39,1.41h18.089c0.771,0,1.391-0.63,1.391-1.41V9.62l-1.391,1.34V20.61z M5.75,14.99h1.4
		C8.13,9.4,12.94,5.15,18.76,5.15c0.24,0,0.48,0,0.71,0l-2.55,2.57c-0.271,0.271-0.271,0.72,0,0.99c0.14,0.14,0.31,0.21,0.49,0.21
		c0.18,0,0.36-0.07,0.489-0.21l4.11-4.26l-4.11-4.24c-0.27-0.271-0.709-0.271-0.979,0c-0.271,0.27-0.271,0.72,0,0.99l2.53,2.55
		c-0.221,0-0.43,0-0.66,0C12.19,3.75,6.75,8.62,5.75,14.99z"/>
</g>
</svg>
