<?xml version="1.0" encoding="utf-8"?>
<!-- Generator: Adobe Illustrator 16.0.0, SVG Export Plug-In . SVG Version: 6.00 Build 0)  -->
<!DOCTYPE svg PUBLIC "-//W3C//DTD SVG 1.1//EN" "http://www.w3.org/Graphics/SVG/1.1/DTD/svg11.dtd">
<svg version="1.1" id="Calque_1" xmlns="http://www.w3.org/2000/svg" xmlns:xlink="http://www.w3.org/1999/xlink" x="0px" y="0px"
	 width="15px" height="15px" viewBox="0 0 15 15" enable-background="new 0 0 15 15" xml:space="preserve">
<g>
	<path fill="#898B8E" d="M12.5,15h-10C1.12,15,0,13.88,0,12.5v-10C0,1.12,1.12,0,2.5,0h10C13.88,0,15,1.12,15,2.5v10
		C15,13.88,13.88,15,12.5,15z M2.5,1C1.67,1,1,1.67,1,2.5v10C1,13.33,1.67,14,2.5,14h10c0.83,0,1.5-0.67,1.5-1.5v-10
		C14,1.67,13.33,1,12.5,1H2.5z"/>
</g>
<g>
	<path fill="#0CAC9A" d="M5.55,11.369c-0.051,0-0.101,0-0.15-0.01c-0.301-0.049-0.551-0.24-0.68-0.5L2.839,7.07
		C2.609,6.61,2.8,6.05,3.259,5.82c0.461-0.23,1.021-0.03,1.25,0.43L5.81,8.869l5.6-5.599c0.36-0.36,0.95-0.36,1.32,0
		c0.36,0.36,0.36,0.95,0,1.32L6.21,11.1C6.029,11.27,5.789,11.369,5.55,11.369z"/>
</g>
</svg>
