<?xml version="1.0" encoding="utf-8"?>
<!-- Generator: Adobe Illustrator 16.0.0, SVG Export Plug-In . SVG Version: 6.00 Build 0)  -->
<!DOCTYPE svg PUBLIC "-//W3C//DTD SVG 1.1//EN" "http://www.w3.org/Graphics/SVG/1.1/DTD/svg11.dtd">
<svg version="1.1" id="Calque_1" xmlns="http://www.w3.org/2000/svg" xmlns:xlink="http://www.w3.org/1999/xlink" x="0px" y="0px"
	 width="595.279px" height="595.28px" viewBox="0 123.305 595.279 595.28" enable-background="new 0 123.305 595.279 595.28"
	 xml:space="preserve">
<title>open-comment</title>
<path fill="#898B8E" d="M49.607,619.372h496.066c27.397,0,49.606,22.209,49.606,49.606l0,0c0,27.396-22.209,49.606-49.606,49.606
	H49.607C22.209,718.585,0,696.375,0,668.979l0,0C0,641.581,22.209,619.372,49.607,619.372z"/>
<path fill="#898B8E" d="M49.607,371.338h496.066c27.397,0,49.606,22.209,49.606,49.607l0,0c0,27.396-22.209,49.606-49.606,49.606
	H49.607C22.209,470.552,0,448.342,0,420.945l0,0C0,393.548,22.209,371.338,49.607,371.338z"/>
<path fill="#898B8E" d="M49.607,123.305h496.066c27.397,0,49.606,22.21,49.606,49.607l0,0c0,27.397-22.209,49.607-49.606,49.607
	H49.607C22.209,222.519,0,200.309,0,172.912l0,0C0,145.515,22.209,123.305,49.607,123.305z"/>
</svg>
