<?xml version="1.0" encoding="utf-8"?>
<!-- Generator: Adobe Illustrator 19.1.0, SVG Export Plug-In . SVG Version: 6.00 Build 0)  -->
<!DOCTYPE svg PUBLIC "-//W3C//DTD SVG 1.1//EN" "http://www.w3.org/Graphics/SVG/1.1/DTD/svg11.dtd">
<svg version="1.1" id="Calque_1" xmlns="http://www.w3.org/2000/svg" xmlns:xlink="http://www.w3.org/1999/xlink" x="0px" y="0px"
	 width="42px" height="42px" viewBox="0 0 42 42" enable-background="new 0 0 42 42" xml:space="preserve">
<path fill="#0CAC9A" d="M0.23,17.94c0.62-4.2,2.45-8.03,5.26-11.09L2.01,6.89c-0.01,0-0.01,0-0.02,0c-0.8,0-1.46-0.65-1.47-1.45
	C0.51,4.62,1.16,3.95,1.97,3.94l7.36-0.1c0.01,0,0.01,0,0.02,0c0.07,0,0.14,0.01,0.21,0.02c0,0,0.01,0,0.01,0
	C9.66,3.88,9.74,3.9,9.82,3.93c0.01,0,0.02,0.01,0.04,0.01C9.93,3.96,9.99,4,10.06,4.03c0.02,0.01,0.04,0.02,0.06,0.03
	c0.06,0.03,0.11,0.07,0.16,0.12c0.03,0.02,0.05,0.04,0.07,0.06c0.04,0.04,0.08,0.09,0.12,0.13c0.02,0.02,0.04,0.04,0.06,0.07
	c0,0.01,0.01,0.01,0.01,0.02c0.03,0.04,0.05,0.08,0.07,0.13c0.03,0.04,0.05,0.09,0.07,0.13c0.01,0.02,0.01,0.04,0.02,0.06
	c0.07,0.17,0.1,0.34,0.1,0.52l0.1,7.36c0.01,0.81-0.64,1.48-1.45,1.49c-0.01,0-0.01,0-0.02,0c-0.8,0-1.46-0.65-1.47-1.45L7.92,8.58
	c-5.93,6.24-6.72,16.05-1.41,23.19c4.47,6.01,12.3,8.66,19.5,6.58c0.78-0.23,1.6,0.23,1.82,1.01c0.23,0.78-0.23,1.6-1.01,1.82
	c-1.9,0.55-3.84,0.81-5.77,0.81c-6.54,0-12.9-3.07-16.91-8.47C0.8,29.02-0.59,23.49,0.23,17.94z M31.07,29.33l0.1,7.37
	c0,0.01,0,0.01,0,0.02c0,0.07,0.01,0.14,0.02,0.2c0,0.03,0.01,0.06,0.01,0.09c0.01,0.06,0.03,0.11,0.05,0.17
	c0.01,0.04,0.02,0.07,0.04,0.11c0.02,0.04,0.05,0.08,0.07,0.13c0.02,0.04,0.05,0.09,0.08,0.13c0.01,0.01,0.01,0.02,0.02,0.03
	c0.02,0.02,0.04,0.04,0.05,0.06c0.05,0.06,0.1,0.11,0.15,0.16c0.03,0.03,0.06,0.05,0.1,0.08c0.05,0.04,0.11,0.07,0.17,0.11
	c0.04,0.02,0.07,0.04,0.11,0.06c0.07,0.03,0.14,0.05,0.21,0.07c0.03,0.01,0.06,0.02,0.09,0.03c0.1,0.02,0.21,0.04,0.32,0.04
	c0.01,0,0.01,0,0.02,0l7.36-0.1c0.81-0.01,1.46-0.68,1.45-1.49c-0.01-0.81-0.67-1.45-1.47-1.45c-0.01,0-0.01,0-0.02,0l-3.47,0.05
	c2.8-3.06,4.64-6.89,5.26-11.09c0.82-5.55-0.57-11.09-3.92-15.59c-5.2-7-14.31-10.07-22.68-7.66c-0.78,0.23-1.23,1.04-1.01,1.82
	s1.04,1.23,1.82,1.01c7.19-2.08,15.03,0.57,19.5,6.58c2.88,3.87,4.07,8.63,3.37,13.4c-0.55,3.74-2.23,7.12-4.78,9.8l-0.05-4.14
	c-0.01-0.81-0.67-1.45-1.47-1.45c-0.01,0-0.01,0-0.02,0C31.72,27.85,31.06,28.52,31.07,29.33z"/>
</svg>
