<svg id="Calque_1" data-name="Calque 1" xmlns="http://www.w3.org/2000/svg" viewBox="0 0 25 25"><defs><style>.cls-1{fill:#1ab7ea;}.cls-2{fill:#fff;}</style></defs><title>vimeo</title><rect class="cls-1" width="25" height="25" rx="2.5" ry="2.5"/><path class="cls-2" d="M21,8.3q-.12,2.64-3.68,7.22-3.68,4.79-6.23,4.79-1.58,0-2.67-2.92L7,12Q6.18,9.14,5.25,9.13A5.59,5.59,0,0,0,3.83,10L3,8.89Q4.32,7.72,5.61,6.54A6,6,0,0,1,8.29,4.92q2.11-.2,2.6,2.88.53,3.33.73,4.14Q12.23,14.7,13,14.7q.57,0,1.7-1.79a7.06,7.06,0,0,0,1.22-2.73Q16,8.64,14.66,8.63a3.39,3.39,0,0,0-1.34.3q1.33-4.36,5.09-4.24Q21.2,4.77,21,8.3Z"/></svg>