<?xml version="1.0" encoding="utf-8"?>
<!-- Generator: Adobe Illustrator 16.0.0, SVG Export Plug-In . SVG Version: 6.00 Build 0)  -->
<!DOCTYPE svg PUBLIC "-//W3C//DTD SVG 1.1//EN" "http://www.w3.org/Graphics/SVG/1.1/DTD/svg11.dtd">
<svg version="1.1" id="Layer_1" xmlns="http://www.w3.org/2000/svg" xmlns:xlink="http://www.w3.org/1999/xlink" x="0px" y="0px"
	 width="268.849px" height="268.629px" viewBox="165.95 298.778 268.849 268.629"
	 enable-background="new 165.95 298.778 268.849 268.629" xml:space="preserve">
<g>
	<g>
		<path fill="#ECB32D" d="M340.192,315.338c-4.189-12.567-17.639-19.402-30.205-15.433c-12.567,4.189-19.401,17.638-15.433,30.205
			l61.952,190.49c4.189,11.685,16.977,18.299,29.103,14.771c12.788-3.748,20.505-17.197,16.315-29.544
			C401.924,505.387,340.192,315.338,340.192,315.338z"/>
		<path fill="#63C1A0" d="M244.285,346.425c-4.189-12.567-17.638-19.402-30.205-15.433c-12.567,4.189-19.401,17.638-15.433,30.205
			l61.953,190.49c4.188,11.685,16.977,18.299,29.103,14.771c12.787-3.748,20.504-17.197,16.314-29.544
			C306.018,536.474,244.285,346.425,244.285,346.425z"/>
		<path fill="#E01A59" d="M418.24,472.977c12.566-4.188,19.401-17.638,15.433-30.204c-4.188-12.567-17.638-19.402-30.205-15.434
			l-190.71,62.174c-11.685,4.188-18.299,16.977-14.771,29.103c3.748,12.787,17.197,20.504,29.544,16.315
			C227.97,534.931,418.24,472.977,418.24,472.977z"/>
		<path fill="#331433" d="M252.443,526.993c12.347-3.969,28.441-9.26,45.639-14.771c-3.969-12.347-9.26-28.441-14.772-45.639
			l-45.638,14.772L252.443,526.993z"/>
		<path fill="#D62027" d="M348.57,495.686c17.197-5.512,33.291-10.803,45.638-14.771c-3.968-12.347-9.26-28.441-14.771-45.639
			l-45.638,14.772L348.57,495.686z"/>
		<path fill="#89D3DF" d="M386.932,377.071c12.567-4.189,19.401-17.638,15.434-30.205c-4.189-12.567-17.639-19.402-30.205-15.433
			l-190.489,61.953c-11.686,4.189-18.3,16.977-14.772,29.103c3.748,12.787,17.197,20.504,29.544,16.315
			C196.883,438.804,386.932,377.071,386.932,377.071z"/>
		<path fill="#258B74" d="M221.356,430.866c12.347-3.969,28.441-9.26,45.639-14.771c-5.512-17.197-10.804-33.292-14.771-45.638
			l-45.639,14.771L221.356,430.866z"/>
		<path fill="#819C3C" d="M317.262,399.779c17.197-5.512,33.292-10.803,45.639-14.771c-5.513-17.197-10.804-33.292-14.772-45.638
			l-45.638,14.772L317.262,399.779z"/>
	</g>
</g>
</svg>
