<svg id="Calque_1" data-name="Calque 1" xmlns="http://www.w3.org/2000/svg" xmlns:xlink="http://www.w3.org/1999/xlink" viewBox="0 0 25 25"><defs><style>.cls-1{fill:url(#linear-gradient);}.cls-2{fill:#420000;fill-rule:evenodd;opacity:0.5;}.cls-3{fill:#fff;}</style><linearGradient id="linear-gradient" x1="12.5" x2="12.5" y2="25" gradientUnits="userSpaceOnUse"><stop offset="0" stop-color="#e52d27"/><stop offset="1" stop-color="#bf171d"/></linearGradient></defs><title>youtube</title><rect class="cls-1" width="25" height="25" rx="2.5" ry="2.5"/><path id="The_Sharpness" data-name="The Sharpness" class="cls-2" d="M11,10.31l3.43,2.29.48-.25Z"/><g id="Lozenge"><path class="cls-3" d="M19.59,9.61A3.13,3.13,0,0,0,19,8.17a2.07,2.07,0,0,0-1.45-.61c-2-.15-5.06-.15-5.06-.15h0s-3,0-5.06.15A2.07,2.07,0,0,0,6,8.17a3.13,3.13,0,0,0-.57,1.44,21.86,21.86,0,0,0-.14,2.34V13a21.86,21.86,0,0,0,.14,2.34A3.13,3.13,0,0,0,6,16.82a2.45,2.45,0,0,0,1.59.62c1.16.11,4.92.15,4.92.15s3,0,5.06-.15A2.07,2.07,0,0,0,19,16.82a3.13,3.13,0,0,0,.57-1.44A21.91,21.91,0,0,0,19.73,13v-1.1A21.91,21.91,0,0,0,19.59,9.61ZM11,14.38V10.31l3.91,2Z"/></g></svg>