<?xml version="1.0" encoding="utf-8"?>
<!-- Generator: Adobe Illustrator 16.0.0, SVG Export Plug-In . SVG Version: 6.00 Build 0)  -->
<!DOCTYPE svg PUBLIC "-//W3C//DTD SVG 1.1//EN" "http://www.w3.org/Graphics/SVG/1.1/DTD/svg11.dtd">
<svg version="1.1" id="Layer_1" xmlns="http://www.w3.org/2000/svg" xmlns:xlink="http://www.w3.org/1999/xlink" x="0px" y="0px"
	 width="97.627px" height="97.628px" viewBox="0 0 97.627 97.628" enable-background="new 0 0 97.627 97.628" xml:space="preserve">
<path fill="#FFFFFF" d="M48.812,0C21.854,0,0,21.855,0,48.814c0,26.958,21.854,48.814,48.812,48.814s48.814-21.854,48.814-48.812
	C97.627,21.858,75.771,0,48.812,0 M35.633,25.371c0-1.194,0.658-2.28,1.718-2.831c0.453-0.236,0.963-0.361,1.475-0.361
	c0.657,0,1.291,0.199,1.83,0.577L70.42,43.581c-0.451,0.165-0.886,0.377-1.287,0.658l-4.454,3.116L42.018,31.5v18.81
	c-0.905-0.633-2.006-1.009-3.192-1.009c-1.188,0-2.286,0.376-3.192,1.009V25.371L35.633,25.371z M74.167,51.433L40.654,74.88
	c-0.957,0.668-2.265,0.756-3.304,0.215c-1.06-0.551-1.718-1.635-1.718-2.83V54.89c0-1.76,1.432-3.193,3.192-3.193
	c1.76,0,3.192,1.434,3.192,3.193v11.244l28.488-19.931c0.54-0.379,1.171-0.579,1.826-0.579c1.043,0,2.022,0.511,2.62,1.364
	C75.961,48.43,75.607,50.425,74.167,51.433"/>
</svg>
