<?xml version="1.0" encoding="utf-8"?>
<!-- Generator: Adobe Illustrator 16.0.0, SVG Export Plug-In . SVG Version: 6.00 Build 0)  -->
<!DOCTYPE svg PUBLIC "-//W3C//DTD SVG 1.1//EN" "http://www.w3.org/Graphics/SVG/1.1/DTD/svg11.dtd">
<svg version="1.1" id="Calque_1" xmlns="http://www.w3.org/2000/svg" xmlns:xlink="http://www.w3.org/1999/xlink" x="0px" y="0px"
	 width="366.57px" height="107.21px" viewBox="0 0 366.57 107.21" enable-background="new 0 0 366.57 107.21" xml:space="preserve">
<g>
	<path fill="#303131" d="M142.17,47.38c2.07,1,3.761,2.03,5.08,3.1c1.32,1.07,2.351,2.14,3.101,3.21
		c0.75,1.069,1.279,2.12,1.6,3.149c0.32,1.031,0.521,1.98,0.59,2.83v1.181c0,2-0.34,3.94-1.02,5.819
		c-0.681,1.891-1.73,3.58-3.15,5.08c-1.92,2-4.189,3.531-6.79,4.601c-2.6,1.069-5.47,1.601-8.6,1.601c-3.49,0-6.7-0.801-9.62-2.4
		s-5.17-3.76-6.73-6.461c-0.5-1.139-0.75-2.069-0.75-2.779c0-0.92,0.21-1.801,0.641-2.62c0.43-0.819,1.1-1.479,2.029-1.979
		c1-0.5,1.891-0.75,2.671-0.75c0.859,0,1.71,0.229,2.569,0.689c0.851,0.46,1.53,1.16,2.03,2.08c0.78,1.279,1.87,2.17,3.26,2.67
		c1.391,0.5,2.69,0.75,3.9,0.75c1.64,0,3.1-0.21,4.38-0.641c1.28-0.43,2.31-1.1,3.1-2.029h-0.109c1-1,1.5-2.35,1.5-4.061
		c-0.21-0.43-0.66-0.89-1.341-1.39c-0.68-0.5-1.5-1.021-2.46-1.55s-1.979-1.029-3.05-1.5c-1.069-0.46-2.1-0.8-3.1-1.01l-0.21-0.11
		c-1.57-0.43-3.17-1.01-4.811-1.76c-1.64-0.75-3.14-1.73-4.489-2.94c-1.351-1.21-2.46-2.65-3.311-4.33
		c-0.85-1.67-1.28-3.65-1.28-5.93c0-1.99,0.44-3.85,1.341-5.56c0.89-1.71,2.119-3.21,3.689-4.49c1.57-1.28,3.44-2.28,5.61-2.99
		s4.5-1.07,7-1.07c1.64,0,3.35,0.27,5.13,0.8c1.78,0.53,3.38,1.27,4.81,2.19c0.78,0.5,1.41,1.16,1.87,1.979
		c0.46,0.82,0.69,1.66,0.69,2.51c0,0.57-0.09,1.07-0.271,1.5c-0.18,0.43-0.41,0.89-0.689,1.39h0.109c-1,1.64-2.489,2.46-4.489,2.46
		c-0.931,0-1.96-0.28-3.101-0.86l0.21,0.11c-0.64-0.36-1.35-0.64-2.14-0.85c-0.78-0.21-1.5-0.32-2.14-0.32
		c-1.211,0-2.24,0.14-3.101,0.43c-0.85,0.29-1.57,0.61-2.14,0.96c-0.57,0.36-0.98,0.71-1.23,1.07c-0.25,0.36-0.37,0.61-0.37,0.75
		c0,0.29,0.04,0.61,0.11,0.96c0.07,0.36,0.28,0.75,0.64,1.17c0.36,0.43,0.92,0.87,1.71,1.34c0.78,0.46,1.891,0.91,3.311,1.34
		c0.57,0.14,1.6,0.43,3.1,0.85C138.96,45.99,140.53,46.6,142.17,47.38z"/>
	<path fill="#303131" d="M191.54,29.75c1.07,1.07,1.601,2.35,1.601,3.85s-0.53,2.76-1.601,3.79c-1.07,1.03-2.32,1.55-3.74,1.55
		h-7.689V72.6c0,1.431-0.521,2.67-1.55,3.739c-1.03,1.07-2.301,1.601-3.79,1.601c-1.431,0-2.67-0.53-3.74-1.601
		c-1.07-1.069-1.6-2.309-1.6-3.739V38.94h-7.591c-1.43,0-2.67-0.52-3.739-1.55c-1.07-1.03-1.601-2.3-1.601-3.79
		c0-1.5,0.53-2.78,1.601-3.85c1.069-1.07,2.31-1.6,3.739-1.6h7.591V7.63c0-1.42,0.529-2.67,1.6-3.74c1.07-1.07,2.31-1.6,3.74-1.6
		c1.5,0,2.76,0.53,3.79,1.6c1.029,1.07,1.55,2.32,1.55,3.74v20.52h7.689C189.22,28.14,190.47,28.68,191.54,29.75z"/>
	<path fill="#303131" d="M220.92,28.14c1.42,0,2.67,0.53,3.74,1.6c1.07,1.07,1.6,2.35,1.6,3.85s-0.529,2.76-1.6,3.79
		c-1.07,1.03-2.32,1.55-3.74,1.55c-1.21,0-2.51,0.18-3.899,0.53c-1.391,0.36-2.44,1.03-3.15,2.03c-0.14,0.29-0.29,0.64-0.43,1.07
		c-0.07,0.21-0.11,0.39-0.11,0.53V72.6c0,1.431-0.53,2.67-1.6,3.739c-1.07,1.07-2.351,1.601-3.851,1.601
		c-1.43,0-2.67-0.53-3.739-1.601c-1.07-1.069-1.601-2.309-1.601-3.739v-39c0-1.5,0.53-2.78,1.601-3.85
		c1.069-1.07,2.31-1.6,3.739-1.6c0.71,0,1.41,0.16,2.08,0.48c0.681,0.32,1.3,0.73,1.87,1.23c1.351-0.57,2.78-1,4.271-1.28
		C217.61,28.29,219.21,28.14,220.92,28.14z"/>
	<path fill="#303131" d="M246.89,10.94c0,1.5-0.53,2.78-1.601,3.85c-1.07,1.07-2.35,1.6-3.85,1.6c-1.431,0-2.67-0.53-3.74-1.6
		c-1.07-1.07-1.6-2.35-1.6-3.85c0-1.42,0.529-2.67,1.6-3.74c1.07-1.07,2.31-1.6,3.74-1.6c1.5,0,2.779,0.53,3.85,1.6
		C246.35,8.27,246.89,9.52,246.89,10.94z M241.44,77.94c-1.431,0-2.67-0.53-3.74-1.601c-1.07-1.069-1.6-2.309-1.6-3.739v-39
		c0-1.5,0.529-2.78,1.6-3.85s2.31-1.6,3.74-1.6c1.5,0,2.78,0.53,3.85,1.6c1.07,1.07,1.601,2.35,1.601,3.85v39
		c0,1.431-0.53,2.67-1.601,3.739C244.22,77.41,242.93,77.94,241.44,77.94z"/>
	<path fill="#303131" d="M297.54,28.14c3.21,0,5.891,0.64,8.07,1.92c2.17,1.28,3.939,2.87,5.29,4.75c1.35,1.89,2.33,3.95,2.939,6.2
		c0.601,2.24,0.91,4.33,0.91,6.25V72.6c0,1.431-0.529,2.67-1.6,3.739c-1.07,1.07-2.351,1.601-3.851,1.601
		c-1.43,0-2.67-0.53-3.739-1.601c-1.07-1.069-1.601-2.309-1.601-3.739V47.27c0-0.43-0.069-1.1-0.21-2.03
		c-0.14-0.92-0.46-1.89-0.96-2.88c-0.569-1.21-1.229-2.08-1.979-2.62c-0.75-0.53-1.84-0.8-3.261-0.8c-1.43,0-2.529,0.27-3.31,0.8
		c-0.78,0.53-1.46,1.41-2.03,2.62c-0.42,1-0.71,1.96-0.85,2.88c-0.14,0.93-0.21,1.6-0.21,2.03V72.6c0,1.431-0.53,2.67-1.59,3.739
		c-1.061,1.07-2.37,1.601-3.92,1.601c-1.41,0-2.65-0.53-3.71-1.601c-1.061-1.069-1.591-2.309-1.591-3.739V47.27
		c0-0.43-0.069-1.1-0.21-2.03c-0.14-0.92-0.42-1.89-0.85-2.88c-0.57-1.21-1.25-2.08-2.03-2.62c-0.779-0.53-1.89-0.8-3.31-0.8
		c-2.49,0-4.271,1.14-5.34,3.42c-0.431,1-0.71,1.96-0.851,2.88c-0.14,0.93-0.21,1.6-0.21,2.03V72.6c0,1.431-0.529,2.67-1.6,3.739
		c-1.07,1.07-2.351,1.601-3.851,1.601c-1.43,0-2.67-0.53-3.739-1.601c-1.07-1.069-1.601-2.309-1.601-3.739v-39
		c0-1.5,0.53-2.78,1.601-3.85c1.069-1.07,2.31-1.6,3.739-1.6c0.641,0,1.32,0.18,2.03,0.53c0.71,0.36,1.351,0.79,1.92,1.28
		c1.28-0.57,2.561-1.02,3.851-1.34c1.279-0.32,2.63-0.48,4.06-0.48c2.42,0,4.61,0.43,6.561,1.28c1.949,0.86,3.659,2,5.149,3.42
		c1.62-1.42,3.39-2.56,5.3-3.42C292.84,28.57,295.04,28.14,297.54,28.14z"/>
	<path fill="#303131" d="M346.59,77.94c-0.93,0-1.529-0.04-1.819-0.11c-3.28-0.14-6.301-0.89-9.08-2.24
		c-2.78-1.35-5.09-3.209-6.95-5.559c-3.56-4.561-5.34-10.221-5.34-16.991c0-3.42,0.569-6.64,1.71-9.67
		c1.14-3.03,2.689-5.66,4.649-7.91c1.96-2.24,4.24-4.02,6.841-5.34c2.6-1.32,5.399-1.98,8.39-1.98c6.05,0,11.22,2.35,15.49,7.05
		c1.989,2.21,3.51,4.74,4.54,7.59c1.029,2.85,1.55,5.88,1.55,9.08c0,1.5-0.53,2.78-1.601,3.851c-1.069,1.07-2.319,1.6-3.739,1.6
		H334.4c0.359,1.141,0.84,2.279,1.439,3.42c0.601,1.141,1.341,2.17,2.19,3.1s1.87,1.69,3.05,2.301c1.18,0.609,2.55,0.939,4.11,1.01
		h0.64c0.92,0,2.12-0.09,3.58-0.27c1.46-0.181,2.97-0.801,4.54-1.871c1.14-0.569,2.17-0.859,3.1-0.859c0.931,0,1.83,0.25,2.73,0.75
		c0.89,0.5,1.62,1.25,2.189,2.24c0.36,0.289,0.53,1.029,0.53,2.24c0,1.85-0.85,3.42-2.56,4.699c-2.49,1.641-4.971,2.689-7.431,3.15
		C350.06,77.71,348.08,77.94,346.59,77.94z M355.03,46.52c-1.07-2.42-2.32-4.24-3.74-5.45c-1.43-1.21-3.42-1.82-5.979-1.82
		c-2.49,0-4.471,0.64-5.931,1.92c-1.46,1.28-2.83,3.06-4.109,5.34h19.76V46.52z"/>
</g>
<path fill="#0CAC9A" d="M48.81,0C21.85,0,0,21.85,0,48.81S21.85,97.621,48.81,97.621S97.62,75.77,97.62,48.81
	C97.63,21.85,75.77,0,48.81,0z M35.63,25.37c0-1.19,0.66-2.28,1.721-2.83c0.449-0.24,0.96-0.36,1.47-0.36c0.66,0,1.29,0.2,1.83,0.58
	l29.76,20.82c-0.45,0.17-0.89,0.38-1.29,0.66l-4.45,3.12L42.02,31.5v18.81c-0.91-0.63-2.011-1.01-3.19-1.01
	c-1.189,0-2.29,0.37-3.189,1.01V25.37H35.63z M74.17,51.43L40.65,74.88c-0.96,0.67-2.26,0.76-3.3,0.209
	c-1.061-0.549-1.721-1.639-1.721-2.83V54.89c0-1.76,1.431-3.19,3.19-3.19s3.189,1.43,3.189,3.19v11.25l28.5-19.94
	c0.54-0.38,1.171-0.58,1.83-0.58c1.04,0,2.021,0.51,2.62,1.36C75.96,48.43,75.61,50.42,74.17,51.43z"/>
<g>
	<path fill="#0CAC9A" d="M297.07,107.21c-1.12,0-2.26-0.041-3.4-0.11c-1.14-0.069-2.149-0.22-3-0.44V86.02
		c0.45-0.08,0.931-0.16,1.44-0.229c0.51-0.07,1.03-0.131,1.56-0.17c0.53-0.041,1.061-0.07,1.58-0.09
		c0.521-0.021,1.021-0.031,1.49-0.031c1.29,0,2.479,0.101,3.59,0.291c1.101,0.199,2.061,0.52,2.87,0.969
		c0.81,0.451,1.44,1.041,1.89,1.781c0.45,0.74,0.67,1.649,0.67,2.729c0,1-0.239,1.86-0.72,2.58c-0.479,0.72-1.149,1.29-2.01,1.72
		c1.29,0.43,2.24,1.061,2.85,1.9c0.61,0.84,0.92,1.9,0.92,3.189c0,2.19-0.8,3.83-2.39,4.92
		C302.8,106.66,300.36,107.21,297.07,107.21z M294.46,94.36h2.73c1.47,0,2.63-0.21,3.46-0.63s1.26-1.17,1.26-2.25
		c0-1.02-0.43-1.75-1.3-2.18s-2-0.641-3.391-0.641c-0.59,0-1.119,0.01-1.579,0.03s-0.851,0.05-1.181,0.091V94.36L294.46,94.36z
		 M294.46,97.39v6.47c0.431,0.04,0.891,0.07,1.38,0.091c0.49,0.02,0.94,0.029,1.351,0.029c0.8,0,1.54-0.05,2.22-0.15
		c0.68-0.1,1.28-0.279,1.78-0.539c0.5-0.25,0.899-0.601,1.2-1.031c0.3-0.43,0.439-0.979,0.439-1.659c0-1.21-0.439-2.04-1.32-2.511
		c-0.88-0.469-2.09-0.709-3.649-0.709h-3.4V97.39z"/>
	<path fill="#0CAC9A" d="M310.81,106.96V85.71h13.64v3.279h-9.78v5.24h8.71v3.221h-8.71v6.219h10.521v3.281h-14.38V106.96z"/>
	<path fill="#0CAC9A" d="M343.58,85.71v3.34h-6.53v17.9h-3.89v-17.9h-6.53v-3.34H343.58z"/>
	<path fill="#0CAC9A" d="M358.91,106.96c-0.29-0.84-0.58-1.67-0.89-2.48c-0.311-0.811-0.601-1.66-0.891-2.51h-8.97
		c-0.29,0.859-0.58,1.699-0.88,2.529s-0.59,1.65-0.88,2.471h-4.021c0.8-2.27,1.55-4.36,2.271-6.29c0.71-1.921,1.41-3.74,2.1-5.46
		c0.68-1.721,1.36-3.35,2.04-4.91c0.67-1.551,1.37-3.09,2.08-4.6h3.69c0.71,1.51,1.409,3.049,2.08,4.6
		c0.67,1.55,1.35,3.189,2.039,4.91c0.69,1.72,1.391,3.539,2.12,5.46c0.73,1.92,1.49,4.021,2.28,6.29h-4.17V106.96z M352.64,89.82
		c-0.471,1.08-1.011,2.4-1.61,3.961c-0.6,1.549-1.23,3.239-1.89,5.059h6.989c-0.649-1.819-1.29-3.52-1.899-5.09
		C353.62,92.169,353.09,90.86,352.64,89.82z"/>
</g>
</svg>
