<?xml version="1.0" encoding="utf-8"?>
<!-- Generator: Adobe Illustrator 16.0.0, SVG Export Plug-In . SVG Version: 6.00 Build 0)  -->
<!DOCTYPE svg PUBLIC "-//W3C//DTD SVG 1.1//EN" "http://www.w3.org/Graphics/SVG/1.1/DTD/svg11.dtd">
<svg version="1.1" id="Layer_1" xmlns="http://www.w3.org/2000/svg" xmlns:xlink="http://www.w3.org/1999/xlink" x="0px" y="0px"
	 width="328.52px" height="104.737px" viewBox="0 0 328.52 104.737" enable-background="new 0 0 328.52 104.737"
	 xml:space="preserve">
<g>
	<defs>
		<rect id="SVGID_1_" width="328.52" height="104.737"/>
	</defs>
	<clipPath id="SVGID_2_">
		<use xlink:href="#SVGID_1_"  overflow="visible"/>
	</clipPath>
	
		<path clip-path="url(#SVGID_2_)" fill="none" stroke="#303031" stroke-width="4.5" stroke-linejoin="round" stroke-miterlimit="10" d="
		M167.328,89.659H25.091V8.653c0-3.537,2.867-6.403,6.403-6.403h129.432c3.536,0,6.402,2.866,6.402,6.403V89.659z"/>
	<rect x="34.3" y="11.459" clip-path="url(#SVGID_2_)" fill="#FFFFFF" width="123.82" height="68.991"/>
	
		<rect x="34.3" y="11.459" clip-path="url(#SVGID_2_)" fill="none" stroke="#303031" stroke-width="4.5" stroke-miterlimit="10" width="123.82" height="68.991"/>
	<polygon clip-path="url(#SVGID_2_)" fill="#FFFFFF" points="85.183,26.687 118.555,45.954 85.183,65.221 	"/>
	
		<polygon clip-path="url(#SVGID_2_)" fill="none" stroke="#303031" stroke-width="4.5" stroke-linejoin="round" stroke-miterlimit="10" points="
		85.183,26.687 118.555,45.954 85.183,65.221 	"/>
	
		<path clip-path="url(#SVGID_2_)" fill="none" stroke="#303031" stroke-width="4.5" stroke-linejoin="round" stroke-miterlimit="10" d="
		M107.641,89.659L107.641,89.659c0,1.932-1.566,3.498-3.498,3.498H88.277c-1.932,0-3.498-1.566-3.498-3.498H2.25v6.788
		c0,3.336,2.704,6.04,6.04,6.04h175.84c3.336,0,6.04-2.704,6.04-6.04v-6.788H107.641z"/>
	
		<path clip-path="url(#SVGID_2_)" fill="none" stroke="#303031" stroke-width="4.5" stroke-linejoin="round" stroke-miterlimit="10" d="
		M308.611,69.823H198.652V8.653c0-3.537,2.867-6.404,6.403-6.404h97.153c3.536,0,6.402,2.867,6.402,6.404V69.823z"/>
	<rect x="205.771" y="9.369" clip-path="url(#SVGID_2_)" fill="#FFFFFF" width="95.721" height="53.334"/>
	
		<rect x="205.771" y="9.369" clip-path="url(#SVGID_2_)" fill="none" stroke="#303031" stroke-width="3.5" stroke-miterlimit="10" width="95.721" height="53.334"/>
	<polygon clip-path="url(#SVGID_2_)" fill="#FFFFFF" points="245.107,21.141 270.906,36.036 245.107,50.931 	"/>
	
		<polygon clip-path="url(#SVGID_2_)" fill="none" stroke="#303031" stroke-width="4.5" stroke-linejoin="round" stroke-miterlimit="10" points="
		245.107,21.141 270.906,36.036 245.107,50.931 	"/>
	
		<path clip-path="url(#SVGID_2_)" fill="none" stroke="#303031" stroke-width="4.5" stroke-linejoin="round" stroke-miterlimit="10" d="
		M262.469,69.823L262.469,69.823c0,1.493-1.211,2.704-2.704,2.704h-12.266c-1.493,0-2.704-1.211-2.704-2.704h-63.8v5.248
		c0,2.579,2.09,4.669,4.669,4.669H321.6c2.579,0,4.67-2.09,4.67-4.669v-5.248H262.469z"/>
	<path clip-path="url(#SVGID_2_)" fill="#303031" d="M175.436,26.281v-6.85l17.729,17.729l-17.805,17.806v-7.123
		c0,0-8.841-1.755-17.931,3.914c-4.976,3.082-8.335,7.136-10.405,10.331c0,0,0.672-11.062,7.037-21.14
		C162.016,28.351,175.436,26.281,175.436,26.281"/>
	<path clip-path="url(#SVGID_2_)" fill="none" stroke="#303031" stroke-linejoin="round" stroke-miterlimit="10" d="M175.436,26.281
		v-6.85l17.729,17.729l-17.805,17.806v-7.123c0,0-8.841-1.755-17.931,3.914c-4.976,3.082-8.335,7.136-10.405,10.331
		c0,0,0.672-11.062,7.037-21.14C162.016,28.351,175.436,26.281,175.436,26.281z"/>
</g>
</svg>
