<?xml version="1.0" encoding="utf-8"?>
<!-- Generator: Adobe Illustrator 16.0.0, SVG Export Plug-In . SVG Version: 6.00 Build 0)  -->
<!DOCTYPE svg PUBLIC "-//W3C//DTD SVG 1.1//EN" "http://www.w3.org/Graphics/SVG/1.1/DTD/svg11.dtd">
<svg version="1.1" id="Layer_1" xmlns="http://www.w3.org/2000/svg" xmlns:xlink="http://www.w3.org/1999/xlink" x="0px" y="0px"
	 width="174.493px" height="125.653px" viewBox="0 0 174.493 125.653" enable-background="new 0 0 174.493 125.653"
	 xml:space="preserve">
<g>
	<defs>
		<rect id="SVGID_1_" width="174.493" height="125.653"/>
	</defs>
	<clipPath id="SVGID_2_">
		<use xlink:href="#SVGID_1_"  overflow="visible"/>
	</clipPath>
	<path clip-path="url(#SVGID_2_)" fill="#FFB100" d="M106.743,26.221c0,3.501-2.838,6.34-6.34,6.34c-3.501,0-6.339-2.839-6.339-6.34
		s2.838-6.34,6.339-6.34C103.905,19.881,106.743,22.72,106.743,26.221"/>
	
		<circle clip-path="url(#SVGID_2_)" fill="none" stroke="#FFFFFF" stroke-width="2.158" stroke-miterlimit="10" cx="100.404" cy="26.221" r="6.339"/>
	<path clip-path="url(#SVGID_2_)" fill="#FFB100" d="M70.895,58.225c0,3.501-2.838,6.34-6.34,6.34c-3.501,0-6.339-2.839-6.339-6.34
		s2.838-6.34,6.339-6.34C68.056,51.885,70.895,54.724,70.895,58.225"/>
	
		<circle clip-path="url(#SVGID_2_)" fill="none" stroke="#FFFFFF" stroke-width="2.158" stroke-miterlimit="10" cx="64.555" cy="58.225" r="6.34"/>
	<path clip-path="url(#SVGID_2_)" fill="#FFB100" d="M40.682,29.129c0,3.501-2.838,6.34-6.34,6.34c-3.501,0-6.339-2.839-6.339-6.34
		s2.838-6.34,6.339-6.34C37.843,22.789,40.682,25.628,40.682,29.129"/>
	
		<circle clip-path="url(#SVGID_2_)" fill="none" stroke="#FFFFFF" stroke-width="2.158" stroke-miterlimit="10" cx="34.342" cy="29.129" r="6.34"/>
	
		<rect x="2.25" y="2.25" clip-path="url(#SVGID_2_)" fill="none" stroke="#303031" stroke-width="4.5" stroke-linejoin="round" stroke-miterlimit="10" width="150" height="121.153"/>
	
		<rect x="2.25" y="105.691" clip-path="url(#SVGID_2_)" fill="none" stroke="#303031" stroke-width="4.5" stroke-linejoin="round" stroke-miterlimit="10" width="150" height="17.712"/>
	<rect x="34.343" y="110.831" clip-path="url(#SVGID_2_)" fill="#303031" width="47.746" height="7.434"/>
	<rect x="22.113" y="110.831" clip-path="url(#SVGID_2_)" fill="#303031" width="2.301" height="7.434"/>
	<rect x="26.159" y="110.831" clip-path="url(#SVGID_2_)" fill="#303031" width="2.301" height="7.434"/>
	<rect x="68.09" y="111.91" clip-path="url(#SVGID_2_)" fill="#FFFFFF" width="75.121" height="5.275"/>
	<path clip-path="url(#SVGID_2_)" fill="#303031" d="M142.132,116.106H69.168v-3.117h72.964V116.106z M144.29,110.83H67.01v7.434
		h77.28V110.83z"/>
	<polygon clip-path="url(#SVGID_2_)" fill="#303031" points="10.703,109.875 18.796,114.547 10.703,119.219 	"/>
	<path clip-path="url(#SVGID_2_)" fill="#FFFFFF" d="M166.985,33.242h-60.377l-6.205-6.205v30.622c0,2.903,2.354,5.257,5.258,5.257
		h61.324c2.903,0,5.258-2.354,5.258-5.257V38.5C172.243,35.596,169.889,33.242,166.985,33.242"/>
	
		<path clip-path="url(#SVGID_2_)" fill="none" stroke="#303031" stroke-width="4.5" stroke-linecap="round" stroke-linejoin="round" stroke-miterlimit="10" d="
		M166.985,33.242h-60.377l-6.205-6.205v30.622c0,2.903,2.354,5.257,5.258,5.257h61.324c2.903,0,5.258-2.354,5.258-5.257V38.5
		C172.243,35.596,169.889,33.242,166.985,33.242z"/>
	
		<line clip-path="url(#SVGID_2_)" fill="none" stroke="#303031" stroke-width="4.5" stroke-linecap="round" stroke-linejoin="round" stroke-miterlimit="10" x1="114.918" y1="47.989" x2="157.945" y2="47.989"/>
	<path clip-path="url(#SVGID_2_)" fill="#FFFFFF" d="M58.175,64.372H27.042c-2.903,0-5.258,2.354-5.258,5.258v19.159
		c0,2.903,2.355,5.257,5.258,5.257h32.08c2.904,0,5.258-2.354,5.258-5.257V58.167L58.175,64.372z"/>
	
		<path clip-path="url(#SVGID_2_)" fill="none" stroke="#303031" stroke-width="4.5" stroke-linecap="round" stroke-linejoin="round" stroke-miterlimit="10" d="
		M58.175,64.372H27.042c-2.903,0-5.258,2.354-5.258,5.258v19.159c0,2.903,2.355,5.257,5.258,5.257h32.08
		c2.904,0,5.258-2.354,5.258-5.257V58.167L58.175,64.372z"/>
	<path clip-path="url(#SVGID_2_)" fill="#303031" d="M33.453,86.503h4.788V75.333h-4.788V86.503z M45.502,68.948l-5.665,7.979v8.778
		c0,0,7.261,1.835,8.139,2.153c0.798,0.239,2.234,0.639,2.792-0.638c0.16-0.479,2.394-9.177,2.634-10.373
		c0.159-1.038-1.038-1.596-2.075-1.596h-5.426c-1.117-1.836,2.394-3.353,1.356-5.107C46.619,69.028,45.502,68.948,45.502,68.948"/>
</g>
</svg>
