<?xml version="1.0" encoding="utf-8"?>
<!-- Generator: Adobe Illustrator 19.1.0, SVG Export Plug-In . SVG Version: 6.00 Build 0)  -->
<!DOCTYPE svg PUBLIC "-//W3C//DTD SVG 1.1//EN" "http://www.w3.org/Graphics/SVG/1.1/DTD/svg11.dtd">
<svg version="1.1" id="Calque_1" xmlns="http://www.w3.org/2000/svg" xmlns:xlink="http://www.w3.org/1999/xlink" x="0px" y="0px"
	 width="34px" height="34px" viewBox="0 0 34 34" enable-background="new 0 0 34 34" xml:space="preserve">
<path fill="#303031" d="M17,34C7.63,34,0,26.37,0,17S7.63,0,17,0s17,7.63,17,17S26.37,34,17,34z M17,1.63
	C8.53,1.63,1.63,8.53,1.63,17c0,8.47,6.89,15.37,15.37,15.37c8.47,0,15.37-6.89,15.37-15.37C32.37,8.53,25.47,1.63,17,1.63z
	 M18.57,14.02v-0.04c-0.01,0.01-0.02,0.02-0.02,0.04H18.57z M12.82,23.54h-3.7V12.4h3.7V23.54z M10.97,10.88h-0.02
	c-1.24,0-2.05-0.86-2.05-1.92c0-1.09,0.83-1.92,2.09-1.92c1.27,0,2.04,0.83,2.07,1.92C13.06,10.03,12.26,10.88,10.97,10.88z
	 M26.16,23.54h-3.7v-5.96c0-1.5-0.54-2.52-1.88-2.52c-1.02,0-1.63,0.69-1.9,1.35c-0.1,0.24-0.12,0.57-0.12,0.9v6.22h-3.7
	c0,0,0.05-10.09,0-11.13h3.7v1.58c0.49-0.76,1.37-1.84,3.34-1.84c2.43,0,4.26,1.59,4.26,5.01V23.54z"/>
</svg>
