<?xml version="1.0" encoding="utf-8"?>
<!-- Generator: Adobe Illustrator 19.1.0, SVG Export Plug-In . SVG Version: 6.00 Build 0)  -->
<!DOCTYPE svg PUBLIC "-//W3C//DTD SVG 1.1//EN" "http://www.w3.org/Graphics/SVG/1.1/DTD/svg11.dtd">
<svg version="1.1" id="Calque_1" xmlns="http://www.w3.org/2000/svg" xmlns:xlink="http://www.w3.org/1999/xlink" x="0px" y="0px"
	 width="34px" height="34px" viewBox="0 0 34 34" enable-background="new 0 0 34 34" xml:space="preserve">
<g>
	<circle fill="#42B190" cx="17" cy="17" r="17"/>
	<path fill="#FFFFFF" d="M18.64,13.87v-0.04c-0.01,0.01-0.02,0.03-0.03,0.04H18.64z M12.61,23.87H8.72v-11.7h3.89V23.87z
		 M10.66,10.58h-0.03c-1.31,0-2.15-0.9-2.15-2.02c0-1.15,0.87-2.02,2.2-2.02c1.33,0,2.15,0.87,2.17,2.02
		C12.86,9.68,12.02,10.58,10.66,10.58z M26.62,23.87h-3.89v-6.26c0-1.57-0.56-2.65-1.97-2.65c-1.07,0-1.71,0.72-1.99,1.42
		c-0.1,0.25-0.13,0.6-0.13,0.95v6.53h-3.89c0,0,0.05-10.6,0-11.7h3.89v1.66c0.52-0.8,1.44-1.93,3.5-1.93c2.56,0,4.48,1.67,4.48,5.26
		V23.87z"/>
</g>
</svg>
