<?xml version="1.0" encoding="utf-8"?>
<!-- Generator: Adobe Illustrator 19.1.0, SVG Export Plug-In . SVG Version: 6.00 Build 0)  -->
<!DOCTYPE svg PUBLIC "-//W3C//DTD SVG 1.1//EN" "http://www.w3.org/Graphics/SVG/1.1/DTD/svg11.dtd">
<svg version="1.1" id="Calque_1" xmlns="http://www.w3.org/2000/svg" xmlns:xlink="http://www.w3.org/1999/xlink" x="0px" y="0px"
	 width="34px" height="34px" viewBox="0 0 34 34" enable-background="new 0 0 34 34" xml:space="preserve">
<path fill="#303031" d="M17,34C7.63,34,0,26.37,0,17S7.63,0,17,0c9.37,0,17,7.63,17,17S26.37,34,17,34z M17,1.63
	C8.53,1.63,1.63,8.53,1.63,17c0,8.47,6.89,15.37,15.37,15.37c8.47,0,15.37-6.89,15.37-15.37C32.37,8.53,25.47,1.63,17,1.63z
	 M27.75,10.94c-0.72,0.32-1.49,0.53-2.3,0.63c0.83-0.5,1.46-1.28,1.76-2.22c-0.77,0.46-1.63,0.79-2.55,0.97
	c-0.73-0.78-1.77-1.27-2.93-1.27c-2.21,0-4.01,1.79-4.01,4.01c0,0.31,0.04,0.62,0.1,0.91c-3.33-0.17-6.29-1.76-8.26-4.19
	c-0.35,0.59-0.54,1.28-0.54,2.02c0,1.39,0.71,2.62,1.78,3.34c-0.66-0.02-1.28-0.2-1.82-0.5c0,0.02,0,0.03,0,0.05
	c0,1.94,1.38,3.56,3.22,3.93c-0.34,0.09-0.69,0.14-1.06,0.14c-0.26,0-0.51-0.03-0.75-0.07c0.51,1.59,1.99,2.75,3.74,2.78
	c-1.37,1.08-3.1,1.72-4.98,1.72c-0.32,0-0.64-0.02-0.96-0.06c1.77,1.14,3.88,1.8,6.14,1.8c7.37,0,11.41-6.11,11.41-11.41
	c0-0.17,0-0.35-0.01-0.52C26.53,12.45,27.21,11.74,27.75,10.94z"/>
</svg>
