<?xml version="1.0" encoding="utf-8"?>
<!-- Generator: Adobe Illustrator 19.1.0, SVG Export Plug-In . SVG Version: 6.00 Build 0)  -->
<!DOCTYPE svg PUBLIC "-//W3C//DTD SVG 1.1//EN" "http://www.w3.org/Graphics/SVG/1.1/DTD/svg11.dtd">
<svg version="1.1" id="Calque_1" xmlns="http://www.w3.org/2000/svg" xmlns:xlink="http://www.w3.org/1999/xlink" x="0px" y="0px"
	 width="34px" height="34px" viewBox="0 0 34 34" enable-background="new 0 0 34 34" xml:space="preserve">
<g>
	<circle fill="#42B190" cx="17" cy="17" r="17"/>
	<path fill="#FFFFFF" d="M28.29,10.63c-0.76,0.33-1.57,0.56-2.42,0.66c0.87-0.52,1.54-1.35,1.85-2.33
		c-0.81,0.48-1.71,0.83-2.67,1.02c-0.77-0.82-1.86-1.33-3.07-1.33c-2.33,0-4.21,1.89-4.21,4.21c0,0.33,0.04,0.65,0.11,0.96
		c-3.5-0.18-6.6-1.85-8.68-4.4c-0.36,0.62-0.57,1.35-0.57,2.12c0,1.46,0.74,2.75,1.87,3.5c-0.69-0.02-1.34-0.21-1.91-0.53
		c0,0.02,0,0.04,0,0.05c0,2.04,1.45,3.74,3.38,4.13c-0.35,0.1-0.73,0.15-1.11,0.15c-0.27,0-0.54-0.03-0.79-0.08
		c0.54,1.67,2.09,2.89,3.93,2.92c-1.44,1.13-3.26,1.8-5.23,1.8c-0.34,0-0.67-0.02-1-0.06c1.86,1.19,4.08,1.89,6.45,1.89
		c7.75,0,11.98-6.42,11.98-11.98c0-0.18,0-0.36-0.01-0.54C27.01,12.22,27.73,11.48,28.29,10.63z"/>
</g>
</svg>
